<?xml version="1.0" standalone="no"?>
<!DOCTYPE svg PUBLIC "-//W3C//DTD SVG 20010904//EN"
 "http://www.w3.org/TR/2001/REC-SVG-20010904/DTD/svg10.dtd">
<svg version="1.0" xmlns="http://www.w3.org/2000/svg"
 width="273.000000pt" height="182.000000pt" viewBox="0 0 273.000000 182.000000"
 preserveAspectRatio="xMidYMid meet">

<g transform="translate(0.000000,182.000000) scale(0.100000,-0.100000)"
fill="#000000" stroke="none">
<path d="M1518 1813 c6 -3 12 -10 12 -16 0 -7 4 -18 9 -26 8 -13 12 -13 27 0
10 8 15 9 11 2 -9 -15 44 -13 55 2 13 17 9 35 -7 35 -8 0 -15 -4 -15 -10 0 -5
-4 -10 -10 -10 -5 0 -10 6 -10 13 0 7 -16 12 -43 13 -23 1 -36 -1 -29 -3z"/>
<path d="M1881 1783 c-17 -59 -14 -73 13 -73 28 0 39 -13 43 -50 7 -62 15 -89
27 -99 19 -16 31 -108 17 -125 -8 -10 -22 -11 -58 -4 -112 22 -125 22 -121 2
4 -22 70 -37 140 -31 52 4 58 -2 58 -57 0 -25 -15 -49 -72 -115 -67 -77 -137
-140 -113 -102 6 11 4 13 -9 8 -10 -4 -25 -7 -34 -7 -10 -1 -4 -7 13 -15 32
-14 22 -18 -34 -15 -19 1 -38 -4 -43 -12 -8 -10 -11 -10 -15 0 -2 6 -9 10 -14
6 -19 -11 3 -24 41 -24 47 0 58 -13 30 -37 -11 -10 -20 -23 -20 -30 0 -16 -12
-17 -29 -1 -11 11 -12 10 -7 0 6 -10 1 -11 -21 -7 -53 12 -60 17 -33 25 24 8
23 8 -7 9 -17 1 -33 -3 -35 -9 -1 -5 -27 -10 -56 -11 -29 -1 -55 -6 -58 -11
-3 -5 -13 -7 -22 -4 -27 8 -95 9 -123 2 -22 -6 -28 -3 -40 23 -17 34 -30 30
-48 -16 -9 -23 -10 -37 -2 -50 9 -16 10 -15 11 9 0 22 4 25 21 21 12 -4 24
-14 26 -24 3 -10 14 -21 25 -25 29 -9 88 5 88 20 0 15 47 28 55 16 2 -4 -2
-16 -10 -26 -21 -28 -19 -32 16 -36 20 -2 38 -12 48 -27 l16 -24 -36 5 c-20 4
-41 3 -47 -1 -6 -4 -12 -33 -14 -66 l-3 -60 -45 -3 c-75 -4 -107 -12 -107 -26
0 -9 17 -16 49 -19 61 -8 108 1 108 19 0 8 8 14 18 14 14 0 15 -2 2 -10 -11
-7 -11 -10 -2 -10 16 0 92 79 89 93 -1 6 4 11 11 12 16 0 33 26 25 39 -3 5 -1
6 5 2 6 -3 19 4 29 17 25 31 48 46 40 24 -3 -9 0 -18 9 -21 17 -6 18 -1 4 25
-9 16 -3 27 31 64 23 25 44 43 47 40 3 -3 -5 -17 -19 -31 -16 -18 -19 -25 -9
-24 8 1 23 2 33 1 16 -1 16 -2 0 -19 -10 -11 -22 -16 -28 -14 -5 3 -4 7 3 10
23 7 12 19 -13 14 -22 -4 -24 -7 -13 -20 11 -13 11 -14 -1 -8 -9 6 -12 4 -9
-5 3 -8 10 -14 16 -13 7 1 45 2 85 3 45 2 65 5 53 10 -14 5 -16 10 -7 15 9 6
8 13 -6 28 -13 14 -14 19 -3 16 8 -2 16 7 19 24 3 14 31 53 61 85 30 33 57 66
59 74 2 8 8 33 14 57 6 23 14 42 18 42 10 0 18 -64 8 -68 -5 -2 -9 -8 -9 -13
0 -6 5 -7 10 -4 6 3 10 0 10 -9 0 -8 -6 -17 -12 -19 -7 -3 -3 -6 10 -6 27 -1
37 -24 51 -113 20 -129 20 -159 0 -179 -11 -11 -33 -22 -49 -26 -17 -3 -30
-11 -30 -19 0 -7 -10 -16 -21 -19 -15 -5 -18 -10 -9 -15 7 -5 2 -9 -17 -13
-15 -3 -32 -1 -37 4 -6 6 -3 9 8 9 11 0 16 5 13 14 -4 10 0 12 15 8 14 -3 24
1 31 14 17 30 17 44 -1 45 -11 0 -12 2 -4 6 21 8 2 23 -31 23 -24 0 -28 -3
-17 -10 8 -5 10 -10 4 -10 -5 0 -15 5 -21 11 -8 8 -17 8 -31 0 -27 -14 -33
-14 -29 2 1 8 -15 12 -58 12 -96 -1 -107 -7 -140 -75 -16 -33 -35 -60 -42 -60
-17 0 -17 3 12 60 14 27 25 53 25 57 0 10 -56 -45 -91 -89 l-30 -37 30 9 c49
14 55 -7 14 -47 -16 -14 -21 -24 -12 -21 20 8 40 -4 31 -18 -4 -6 -16 -16 -27
-23 l-20 -13 20 7 c11 4 26 9 33 12 21 9 13 -16 -10 -31 -36 -24 -141 -36
-262 -30 -136 6 -144 7 -178 24 -21 10 -28 20 -28 43 0 22 -4 28 -16 23 -9 -3
-34 -6 -57 -7 -40 -1 -41 -1 -14 -11 34 -12 34 -22 1 -37 -19 -8 -24 -16 -19
-29 11 -29 11 -36 -2 -37 -7 0 -13 -3 -13 -7 0 -5 0 -15 0 -23 0 -9 9 -15 23
-14 20 0 20 1 3 8 -15 6 -17 9 -6 16 8 5 17 2 25 -8 7 -10 15 -17 19 -17 11 0
36 -27 30 -33 -10 -10 56 -18 72 -9 15 8 12 11 -15 17 -17 4 -37 15 -44 26 -6
10 -20 19 -30 19 -10 0 -15 5 -12 10 4 6 1 17 -5 25 -6 8 -9 19 -5 24 3 6 26
-8 52 -33 35 -34 56 -46 91 -51 29 -4 41 -10 32 -15 -32 -20 69 -25 315 -16
17 0 41 -3 55 -8 24 -8 24 -8 5 8 l-20 16 20 -7 c11 -3 24 -11 28 -17 6 -8 10
-7 14 2 7 17 36 15 72 -5 53 -31 47 -69 -9 -58 -14 2 -19 2 -12 -1 10 -5 10
-9 1 -20 -8 -10 -5 -19 18 -40 l28 -26 -36 26 c-34 25 -39 25 -110 16 -41 -5
-95 -10 -120 -10 l-45 0 5 -47 c9 -68 3 -93 -19 -93 -24 0 -37 -20 -13 -21 16
0 16 -1 -2 -9 -16 -7 -17 -9 -3 -9 9 -1 30 7 47 17 25 14 34 15 51 5 25 -16
64 -18 40 -3 -13 9 -13 11 0 20 8 6 29 9 46 6 18 -2 37 1 44 7 10 9 11 9 6 0
-4 -7 -3 -13 1 -13 14 0 49 29 38 31 -5 0 1 4 15 8 15 5 31 3 40 -4 20 -16
100 -26 100 -13 0 6 7 8 15 4 8 -3 20 1 27 8 16 15 206 39 241 31 13 -4 49 -8
78 -11 105 -8 164 -16 174 -25 18 -14 115 -24 240 -24 l120 0 3 46 c2 32 -2
51 -13 62 -8 9 -15 22 -15 29 0 10 3 9 11 -2 9 -13 10 -13 6 0 -2 10 -19 16
-46 18 -23 2 -39 7 -36 12 3 4 -10 7 -27 6 -18 -2 -55 -4 -81 -5 -27 0 -46 -5
-43 -9 3 -5 -1 -9 -9 -9 -8 0 -15 4 -15 9 0 10 -86 6 -96 -5 -4 -4 -1 -7 6 -7
7 0 11 -2 8 -5 -9 -9 -58 6 -52 16 3 5 0 9 -5 9 -6 0 -11 -4 -11 -9 0 -5 -13
-3 -30 5 -16 9 -34 13 -40 9 -5 -3 -10 -2 -10 3 0 5 -12 10 -27 11 -64 4 -78
7 -76 19 2 7 -9 12 -27 12 -20 0 -30 -5 -30 -15 0 -8 -5 -15 -11 -15 -6 0 -9
7 -5 15 3 8 1 15 -4 15 -6 0 -10 -10 -10 -22 -1 -23 -1 -23 -15 2 -9 18 -10
27 -2 32 6 3 -7 8 -29 11 l-39 4 44 1 c36 2 42 5 37 19 -6 17 -5 17 8 1 17
-22 30 -23 22 -2 -4 10 -2 14 6 11 7 -2 12 -10 10 -16 -2 -8 21 -11 80 -9 79
3 83 4 81 26 -4 30 13 28 21 -3 5 -18 11 -23 23 -18 13 5 14 8 2 12 -27 11
-17 26 19 29 21 1 51 6 67 11 29 9 29 9 5 12 -14 1 5 5 42 9 38 3 71 9 74 12
3 4 1 15 -5 26 -8 15 -8 22 2 25 9 4 9 7 0 18 -10 9 -13 10 -13 1 0 -7 -4 -12
-10 -12 -5 0 -10 7 -10 15 0 8 -4 15 -10 15 -5 0 -10 4 -10 9 0 6 25 9 55 8
47 -2 55 -5 55 -22 0 -15 3 -16 12 -7 7 7 24 12 39 12 15 0 32 7 39 15 7 8 19
15 26 15 8 0 14 5 14 11 0 7 -15 10 -40 7 -22 -2 -40 0 -40 4 0 5 29 8 65 8
63 0 89 14 43 23 l-23 4 23 2 c14 1 22 7 22 19 0 11 -3 13 -8 5 -4 -6 -31 -13
-61 -16 -49 -3 -52 -2 -48 17 3 12 8 31 11 43 3 15 -1 26 -12 32 -24 12 -182
15 -182 2 0 -5 -12 -24 -27 -41 -19 -23 -33 -30 -49 -27 -15 3 -21 0 -17 -10
3 -7 8 -11 12 -8 4 2 5 -9 3 -25 -3 -23 -7 -26 -17 -17 -8 8 -9 14 -3 18 7 4
6 9 -1 13 -6 4 -15 4 -21 1 -5 -3 -10 3 -10 14 0 11 9 22 20 26 17 5 20 15 20
60 0 29 3 60 6 69 3 9 1 16 -4 16 -6 0 -13 -8 -15 -17 -3 -10 -3 18 -1 62 4
74 -4 154 -22 229 -5 19 -3 27 4 22 6 -3 15 8 22 28 6 19 17 36 24 39 8 3 11
20 10 48 -2 24 -3 56 -3 72 -1 20 -6 27 -21 27 -18 0 -20 7 -20 53 l1 52 18
-34 c11 -21 21 -30 25 -22 4 6 4 17 1 24 -11 22 15 -17 55 -85 31 -52 40 -77
40 -112 0 -34 4 -46 15 -47 29 -3 33 -4 42 -13 5 -5 3 -6 -4 -2 -7 4 -13 2
-13 -4 0 -8 -6 -8 -20 0 -14 8 -20 8 -20 -1 0 -7 -20 -10 -60 -7 -57 3 -61 1
-67 -20 -8 -31 0 -36 62 -39 50 -2 54 -1 57 22 l3 25 57 -28 c38 -18 67 -41
88 -70 17 -24 34 -41 37 -38 4 3 -4 17 -17 31 -35 37 -18 41 23 6 38 -34 47
-37 47 -17 0 7 -26 29 -58 49 -52 32 -97 87 -72 87 6 0 10 -6 10 -12 0 -9 3
-9 9 1 8 12 12 12 25 2 14 -12 16 -10 16 17 0 21 6 32 18 35 10 3 5 5 -12 6
-16 0 -54 10 -85 22 -48 18 -61 28 -93 77 -52 81 -79 138 -81 173 l-2 30 -21
-27 c-20 -24 -22 -25 -26 -8 -2 12 -8 3 -17 -26 -8 -25 -23 -54 -33 -66 -10
-11 -15 -24 -11 -27 3 -4 1 -7 -5 -7 -7 0 -12 6 -12 14 0 8 -3 16 -7 19 -5 2
-3 3 4 1 6 -1 19 6 28 16 16 18 16 20 2 26 -14 5 -16 21 -10 117 3 62 8 115
12 118 3 4 16 10 29 14 18 5 22 2 22 -14 0 -24 -10 -27 -28 -9 -9 9 -12 -3
-12 -54 0 -37 -4 -77 -9 -90 -4 -13 -5 -32 -1 -43 6 -17 9 -14 19 20 7 22 15
63 18 92 3 32 13 59 24 69 11 10 19 24 19 32 0 10 7 12 27 7 34 -8 32 -5 26
-37 -6 -30 -42 -46 -44 -20 -1 10 -6 2 -12 -17 -9 -29 -8 -36 9 -48 15 -11 20
-11 23 -1 2 7 12 22 22 33 18 20 49 86 49 103 0 5 -11 21 -25 36 l-24 26 -255
0 -255 0 -10 -37z m312 -343 c3 -11 1 -18 -4 -14 -5 3 -9 12 -9 20 0 20 7 17
13 -6z m-59 -29 c7 -10 -43 -46 -51 -37 -7 7 26 46 38 46 4 0 10 -4 13 -9z
m170 -128 c5 -42 3 -63 -4 -63 -6 0 -10 27 -10 67 0 81 5 79 14 -4z m-314 -52
c0 -5 -22 -34 -50 -64 -27 -30 -50 -59 -50 -65 0 -12 -28 -24 -40 -17 -4 2
-15 -4 -25 -15 -10 -11 -13 -20 -7 -20 6 0 16 8 21 18 6 9 10 13 10 7 1 -5 -8
-20 -17 -33 -15 -19 -20 -21 -30 -10 -8 11 -5 21 14 46 14 18 30 29 36 26 6
-4 8 -3 5 3 -3 5 10 25 30 44 20 19 32 27 28 19 -5 -9 -4 -12 1 -7 5 5 9 15 9
23 0 7 2 13 5 11 3 -1 16 8 30 21 27 25 30 26 30 13z m549 -35 c10 -12 8 -13
-8 -9 -12 3 -21 9 -21 14 0 14 16 11 29 -5z m-588 -64 c-17 -34 -92 -112 -106
-112 -3 0 23 34 57 75 34 41 64 75 65 75 2 0 -5 -17 -16 -38z m308 -230 c1 -7
-3 -10 -9 -7 -5 3 -10 18 -9 33 0 24 1 25 9 7 5 -11 9 -26 9 -33z m-654 29
c-3 -5 3 -12 12 -14 13 -3 11 -5 -7 -6 l-25 -2 24 -10 c23 -9 23 -11 8 -26
-12 -13 -19 -14 -30 -5 -8 7 -17 9 -21 5 -7 -7 -45 34 -46 48 0 4 16 5 35 3
19 -1 37 1 40 7 4 5 8 9 11 9 3 0 3 -4 -1 -9z m55 -15 c0 -3 -4 -8 -10 -11 -5
-3 -10 -1 -10 4 0 6 5 11 10 11 6 0 10 -2 10 -4z m140 -6 c0 -5 -6 -10 -14
-10 -8 0 -18 5 -21 10 -3 6 3 10 14 10 12 0 21 -4 21 -10z m440 -59 c0 -37 2
-42 15 -31 13 11 15 6 15 -33 0 -25 3 -52 6 -61 4 -11 1 -16 -10 -16 -12 0
-16 11 -17 48 -1 26 -3 39 -6 30 -5 -20 -23 -25 -23 -7 0 7 -8 18 -17 25 -11
8 -13 13 -5 14 8 0 10 8 6 25 -4 15 -2 25 5 25 6 0 11 12 11 28 0 21 2 24 10
12 5 -8 10 -35 10 -59z m184 -118 c-4 -15 -11 -20 -22 -16 -10 4 -13 2 -8 -5
3 -6 3 -13 -2 -16 -19 -11 -9 35 11 49 25 17 28 16 21 -12z m-917 11 c-3 -3
-12 -4 -19 -1 -8 3 -5 6 6 6 11 1 17 -2 13 -5z m308 -4 l20 -9 -20 0 c-11 -1
-38 -3 -60 -6 l-40 -5 30 14 c34 17 42 18 70 6z m-121 -45 c-4 -8 -1 -15 5
-15 6 0 11 -4 11 -10 0 -12 -10 -13 -29 -1 -12 8 -12 12 -2 25 17 20 22 20 15
1z m816 -14 c0 -13 -33 -19 -55 -9 -18 8 -18 8 3 4 12 -2 22 0 22 5 0 5 7 9
15 9 8 0 15 -4 15 -9z m-850 -5 c0 -3 -4 -8 -10 -11 -5 -3 -10 -1 -10 4 0 6 5
11 10 11 6 0 10 -2 10 -4z m747 -22 c-3 -3 -12 -4 -19 -1 -8 3 -5 6 6 6 11 1
17 -2 13 -5z m-277 -178 c0 -2 -7 -6 -15 -10 -8 -3 -15 -1 -15 4 0 6 7 10 15
10 8 0 15 -2 15 -4z m96 -9 c8 3 14 0 14 -6 0 -6 -11 -11 -25 -11 -19 0 -23 4
-18 17 4 10 8 12 10 6 3 -7 11 -9 19 -6z m-46 -9 c0 -4 -7 -8 -15 -8 -8 0 -15
4 -15 8 0 5 7 9 15 9 8 0 15 -4 15 -9z m-230 -27 c0 -4 -11 -6 -25 -3 -14 2
-25 6 -25 8 0 2 11 4 25 4 14 0 25 -4 25 -9z"/>
<path d="M1885 1140 c-10 -11 -16 -22 -13 -25 3 -3 13 6 22 20 20 30 16 32 -9
5z"/>
<path d="M2661 1787 c0 -21 4 -93 10 -159 6 -65 9 -121 6 -124 -8 -9 -37 8
-37 22 0 8 -9 14 -20 14 -11 0 -20 7 -20 15 0 8 -6 14 -12 13 -18 -4 -27 -31
-14 -41 15 -10 -21 -37 -51 -37 -14 0 -23 -6 -23 -16 0 -11 6 -14 20 -9 16 5
20 2 20 -17 1 -20 3 -18 15 11 12 26 20 32 35 28 11 -3 20 -1 20 4 0 16 46 9
63 -9 20 -22 22 -49 5 -55 -10 -3 -10 -7 0 -19 17 -21 30 -154 14 -144 -7 4
-12 2 -12 -3 0 -6 11 -11 25 -11 22 0 25 4 25 39 0 22 -5 41 -12 43 -13 5 -13
67 0 80 6 6 4 25 -5 51 -15 40 -18 94 -10 147 2 14 -2 32 -9 40 -7 8 -17 51
-22 95 -5 47 -10 64 -11 42z"/>
<path d="M1394 1795 c-13 -32 4 -45 54 -44 47 1 49 3 49 30 0 28 -2 29 -49 29
-34 0 -50 -5 -54 -15z"/>
<path d="M1704 1795 c-7 -18 4 -37 18 -29 6 4 14 0 19 -7 5 -9 9 -10 9 -2 0 6
9 9 20 6 33 -9 13 24 -22 36 -39 14 -38 14 -44 -4z"/>
<path d="M1285 1781 c-3 -5 -2 -12 3 -15 5 -3 9 1 9 9 0 17 -3 19 -12 6z"/>
<path d="M1327 1763 c-12 -12 -7 -22 8 -17 8 4 15 10 15 15 0 11 -14 12 -23 2z"/>
<path d="M1390 1715 c0 -18 5 -25 20 -25 23 0 25 8 6 33 -18 24 -26 21 -26 -8z"/>
<path d="M1772 1710 c-7 -11 -8 -20 -3 -20 9 0 24 30 18 36 -1 2 -8 -6 -15
-16z"/>
<path d="M1540 1706 c0 -17 27 -24 60 -16 l25 7 -28 12 c-38 15 -57 14 -57 -3z"/>
<path d="M1399 1668 c0 -2 -1 -23 -2 -48 l-1 -45 49 0 c47 0 50 2 53 28 3 25
1 27 -37 27 -34 0 -41 3 -41 20 0 16 -16 29 -21 18z m51 -58 c0 -5 -4 -10 -10
-10 -5 0 -10 5 -10 10 0 6 5 10 10 10 6 0 10 -4 10 -10z"/>
<path d="M1547 1663 c-11 -10 -8 -43 4 -43 5 0 8 4 4 9 -3 5 -1 12 5 16 18 11
11 -37 -7 -51 -16 -12 -15 -13 12 -14 17 -1 40 -3 53 -6 12 -2 22 1 22 6 0 6
-4 10 -10 10 -5 0 -10 5 -10 10 0 6 7 10 15 10 9 0 15 9 15 25 0 23 -3 25 -35
21 -19 -3 -37 0 -40 5 -7 11 -19 12 -28 2z m56 -40 c-7 -2 -13 -12 -13 -20 0
-9 -3 -14 -6 -10 -10 10 4 37 18 36 10 0 10 -2 1 -6z"/>
<path d="M1749 1665 c-4 -25 -1 -84 5 -93 4 -7 14 -12 23 -12 12 0 15 8 10 40
-3 22 -1 43 5 46 6 4 5 10 -3 15 -15 10 -39 12 -40 4z"/>
<path d="M750 1621 c0 -14 4 -20 12 -15 8 5 9 0 6 -14 -4 -12 -2 -20 3 -16 14
8 11 40 -6 54 -13 10 -15 9 -15 -9z"/>
<path d="M1002 1595 c0 -16 2 -22 5 -12 2 9 2 23 0 30 -3 6 -5 -1 -5 -18z"/>
<path d="M1707 1595 c-4 -8 -2 -17 3 -20 6 -4 10 3 10 14 0 25 -6 27 -13 6z"/>
<path d="M2525 1600 c-3 -6 1 -7 9 -4 18 7 21 14 7 14 -6 0 -13 -4 -16 -10z"/>
<path d="M1408 1533 c7 -3 16 -2 19 1 4 3 -2 6 -13 5 -11 0 -14 -3 -6 -6z"/>
<path d="M1453 1533 c9 -2 25 -2 35 0 9 3 1 5 -18 5 -19 0 -27 -2 -17 -5z"/>
<path d="M772 1495 c0 -16 2 -22 5 -12 2 9 2 23 0 30 -3 6 -5 -1 -5 -18z"/>
<path d="M1438 1513 c6 -2 18 -2 25 0 6 3 1 5 -13 5 -14 0 -19 -2 -12 -5z"/>
<path d="M2469 1488 c-6 -22 -2 -57 5 -55 12 4 16 46 4 53 -4 3 -8 4 -9 2z"/>
<path d="M678 1443 c6 -2 18 -2 25 0 6 3 1 5 -13 5 -14 0 -19 -2 -12 -5z"/>
<path d="M720 1440 c0 -5 4 -10 9 -10 5 0 16 -3 25 -6 11 -4 16 -1 16 10 0 10
-9 16 -25 16 -14 0 -25 -4 -25 -10z"/>
<path d="M1213 1429 c-46 -13 -51 -29 -9 -29 19 0 38 5 41 10 3 6 15 10 26 10
11 0 17 5 14 10 -7 12 -28 12 -72 -1z"/>
<path d="M2500 1425 c-14 -17 -14 -17 18 -20 26 -3 27 1 8 20 -12 12 -16 12
-26 0z"/>
<path d="M1698 1423 c7 -3 16 -2 19 1 4 3 -2 6 -13 5 -11 0 -14 -3 -6 -6z"/>
<path d="M2554 1418 c-4 -7 -3 -8 5 -4 6 4 20 2 29 -6 15 -12 16 -11 3 5 -16
20 -27 22 -37 5z"/>
<path d="M2610 1421 c0 -5 5 -13 10 -16 6 -3 10 -2 10 4 0 5 -4 13 -10 16 -5
3 -10 2 -10 -4z"/>
<path d="M740 1410 c0 -9 39 -25 46 -18 2 3 -7 10 -21 16 -14 6 -25 7 -25 2z"/>
<path d="M645 1400 c3 -5 11 -10 16 -10 6 0 7 5 4 10 -3 6 -11 10 -16 10 -6 0
-7 -4 -4 -10z"/>
<path d="M690 1406 c0 -2 9 -6 20 -9 11 -3 20 -1 20 4 0 5 -9 9 -20 9 -11 0
-20 -2 -20 -4z"/>
<path d="M684 1371 c3 -4 28 -8 56 -10 31 -1 49 2 46 8 -3 5 -29 9 -56 9 -28
1 -48 -3 -46 -7z"/>
<path d="M768 1344 c-4 -3 -12 -7 -20 -8 -7 -2 -45 -18 -85 -37 -64 -30 -72
-37 -73 -61 0 -20 5 -28 18 -28 10 0 22 4 28 8 5 5 25 15 44 22 69 27 110 59
110 85 0 24 -10 32 -22 19z"/>
<path d="M1021 1342 c-23 -8 2 -22 39 -22 30 0 38 -3 34 -14 -4 -10 1 -14 15
-13 12 1 21 5 21 10 0 4 5 5 10 2 6 -3 10 4 10 18 0 23 -3 24 -59 23 -32 0
-64 -2 -70 -4z"/>
<path d="M1818 1328 c9 -9 15 -9 24 0 9 9 7 12 -12 12 -19 0 -21 -3 -12 -12z"/>
<path d="M1558 1323 c7 -3 16 -2 19 1 4 3 -2 6 -13 5 -11 0 -14 -3 -6 -6z"/>
<path d="M2672 1228 c-7 -7 -12 -8 -12 -4 0 5 -7 3 -15 -4 -16 -13 -7 -27 32
-48 39 -21 53 -15 53 23 0 19 -4 35 -9 35 -5 0 -15 2 -23 5 -7 3 -19 0 -26 -7z"/>
<path d="M928 1206 c-13 -5 -37 -15 -55 -22 -17 -8 -38 -14 -47 -14 -9 0 -16
-4 -16 -9 0 -10 156 -13 191 -4 10 3 19 10 19 15 0 6 -7 7 -16 4 -13 -5 -15
-1 -10 18 5 21 2 24 -19 22 -13 0 -35 -5 -47 -10z m52 -13 c0 -5 -17 -9 -38
-10 -28 -1 -32 1 -17 7 26 11 55 12 55 3z"/>
<path d="M1848 1203 c7 -3 16 -2 19 1 4 3 -2 6 -13 5 -11 0 -14 -3 -6 -6z"/>
<path d="M2330 1120 c0 -6 11 -8 28 -4 39 10 40 14 4 14 -18 0 -32 -5 -32 -10z"/>
<path d="M1592 1113 c-6 -2 -10 -8 -7 -12 2 -5 -19 -6 -47 -3 -37 3 -49 2 -44
-7 4 -7 35 -11 79 -10 58 0 67 2 47 10 -20 8 -22 12 -10 19 16 10 4 12 -18 3z"/>
<path d="M1453 1073 c-7 -2 -13 -9 -13 -15 0 -12 41 -6 41 7 1 12 -11 15 -28
8z"/>
<path d="M80 1048 c-25 -11 -52 -24 -60 -28 -16 -7 -28 -90 -13 -90 4 0 20 6
35 14 14 8 42 19 62 26 34 11 36 14 36 56 0 24 -3 44 -7 43 -5 0 -28 -10 -53
-21z m-48 -53 c3 -14 1 -25 -3 -25 -5 0 -9 11 -9 25 0 14 2 25 4 25 2 0 6 -11
8 -25z"/>
<path d="M2013 1043 c9 -2 17 -11 17 -19 0 -8 7 -14 15 -14 8 0 15 5 15 11 0
5 -4 8 -9 5 -5 -3 -11 1 -15 9 -3 8 -13 14 -23 14 -17 -1 -17 -2 0 -6z"/>
<path d="M730 996 c0 -9 50 -12 62 -5 8 6 -1 9 -24 9 -21 0 -38 -2 -38 -4z"/>
<path d="M1012 965 c-26 -30 -30 -54 -5 -34 15 13 16 12 11 -8 -4 -13 -3 -23
2 -23 4 0 10 20 12 45 2 25 3 45 2 45 0 0 -10 -11 -22 -25z"/>
<path d="M723 963 c-117 -19 -124 -33 -15 -31 51 1 95 5 96 8 2 3 1 12 -3 20
-5 13 -16 14 -78 3z"/>
<path d="M1960 971 c0 -12 88 -26 98 -17 11 12 -21 26 -60 26 -21 0 -38 -4
-38 -9z"/>
<path d="M1460 890 c0 -5 4 -10 9 -10 6 0 13 5 16 10 3 6 -1 10 -9 10 -9 0
-16 -4 -16 -10z"/>
<path d="M1248 878 c9 -9 15 -9 24 0 9 9 7 12 -12 12 -19 0 -21 -3 -12 -12z"/>
<path d="M1118 853 c-11 -3 -16 -12 -15 -23 4 -27 17 -37 17 -14 0 11 5 25 12
32 7 7 10 11 8 11 -3 -1 -13 -3 -22 -6z"/>
<path d="M1250 851 c0 -5 -18 -11 -40 -15 -22 -3 -40 -10 -40 -15 0 -5 -8 -12
-17 -14 -10 -3 5 -4 32 -2 28 1 41 0 30 -2 -26 -6 -56 -33 -49 -44 13 -22 -25
-6 -51 21 -28 30 -55 39 -55 20 0 -5 -12 -13 -27 -16 -24 -6 -22 -8 26 -21 35
-9 63 -24 82 -44 22 -24 32 -29 43 -20 7 6 16 8 19 5 4 -4 18 1 32 10 14 9 30
14 35 11 10 -6 11 17 3 88 -3 26 -9 47 -14 47 -5 0 -9 -4 -9 -9z"/>
<path d="M562 830 c-12 -10 -22 -29 -22 -43 0 -28 -20 -49 -36 -39 -6 4 -16
16 -23 27 -11 19 -12 19 -6 -2 5 -18 3 -22 -9 -17 -11 4 -16 0 -16 -11 0 -17
-1 -17 -18 -2 -23 21 -51 21 -76 2 -11 -8 -30 -15 -43 -15 -27 0 -31 -16 -5
-23 13 -4 11 -5 -5 -6 -13 0 -23 4 -23 9 0 6 -26 10 -59 10 -65 0 -71 -6 -63
-62 5 -31 16 -35 38 -13 9 8 31 15 50 15 25 0 34 4 35 18 0 12 3 11 10 -7 7
-18 14 -22 34 -17 18 5 25 2 25 -8 0 -12 10 -14 42 -10 24 3 46 10 49 16 4 7
9 7 13 0 3 -6 -9 -16 -27 -23 -29 -11 -30 -13 -9 -16 13 -3 29 1 37 7 8 6 19
9 25 5 5 -3 10 -2 10 3 0 5 17 9 38 9 62 1 64 2 57 22 -7 23 32 64 52 57 7 -3
13 -1 13 4 0 5 13 7 29 4 18 -4 32 -1 36 7 5 8 4 10 -4 5 -6 -4 -20 -4 -32 -1
-16 5 -18 10 -9 20 16 19 3 37 -22 29 -22 -7 -57 23 -51 43 7 20 -11 22 -35 3z
m-322 -151 c0 -5 -5 -7 -10 -4 -6 3 -17 -1 -26 -9 -19 -20 -35 -21 -28 -2 8
22 64 35 64 15z"/>
<path d="M2667 813 c-31 -8 -13 -27 29 -30 37 -2 38 -2 11 8 -15 6 -25 15 -21
20 3 5 4 8 2 8 -2 -1 -11 -3 -21 -6z"/>
<path d="M2660 760 c-11 -7 -7 -10 18 -10 17 0 32 5 32 10 0 13 -30 13 -50 0z"/>
<path d="M680 750 c0 -5 5 -10 10 -10 6 0 10 5 10 10 0 6 -4 10 -10 10 -5 0
-10 -4 -10 -10z"/>
<path d="M1073 693 c9 -2 25 -2 35 0 9 3 1 5 -18 5 -19 0 -27 -2 -17 -5z"/>
<path d="M94 638 c-3 -4 2 -8 10 -8 8 0 17 4 20 8 3 5 -2 9 -10 9 -8 0 -17 -4
-20 -9z"/>
<path d="M1337 623 c18 -2 50 -2 70 0 21 2 7 4 -32 4 -38 0 -55 -2 -38 -4z"/>
<path d="M1508 603 c7 -3 16 -2 19 1 4 3 -2 6 -13 5 -11 0 -14 -3 -6 -6z"/>
<path d="M1273 593 c9 -2 23 -2 30 0 6 3 -1 5 -18 5 -16 0 -22 -2 -12 -5z"/>
<path d="M1348 593 c18 -2 45 -2 60 0 15 2 0 4 -33 4 -33 0 -45 -2 -27 -4z"/>
<path d="M2598 473 c7 -3 16 -2 19 1 4 3 -2 6 -13 5 -11 0 -14 -3 -6 -6z"/>
<path d="M2058 423 c7 -3 16 -2 19 1 4 3 -2 6 -13 5 -11 0 -14 -3 -6 -6z"/>
<path d="M1678 413 c7 -3 16 -2 19 1 4 3 -2 6 -13 5 -11 0 -14 -3 -6 -6z"/>
<path d="M1110 390 c-14 -11 -20 -20 -14 -20 5 0 15 5 22 12 9 9 15 9 24 0 7
-7 30 -12 53 -12 33 1 37 2 22 11 -10 6 -25 8 -33 5 -9 -3 -12 -1 -9 4 3 6 1
10 -4 10 -6 0 -11 -5 -11 -11 0 -5 -5 -7 -10 -4 -6 4 -8 11 -5 16 10 15 -9 10
-35 -11z"/>
<path d="M751 329 c-14 -46 -5 -64 34 -72 30 -5 33 9 4 18 -27 9 -9 30 32 39
31 6 32 26 1 26 -10 0 -27 7 -38 15 -20 13 -22 12 -33 -26z"/>
<path d="M1101 327 c-52 -18 -48 -32 11 -35 29 -1 56 -6 62 -12 5 -5 22 -6 37
-3 17 3 29 1 29 -5 0 -5 9 -8 20 -5 15 4 20 14 20 39 l0 34 -72 -1 c-40 0 -88
-5 -107 -12z"/>
<path d="M1335 324 c-19 -14 -19 -15 3 -21 17 -4 21 -10 17 -24 -5 -16 -1 -19
23 -19 27 0 30 3 28 33 -2 48 -31 61 -71 31z"/>
<path d="M957 309 c8 -8 22 -8 50 -1 l38 10 -49 1 c-37 1 -47 -2 -39 -10z"/>
<path d="M1195 230 c-16 -18 -16 -20 -2 -20 10 0 17 -4 17 -10 0 -16 50 -12
67 5 23 23 9 45 -30 45 -21 0 -41 -8 -52 -20z"/>
<path d="M1345 229 c-8 -12 8 -16 35 -9 l25 6 -28 6 c-15 3 -30 2 -32 -3z"/>
<path d="M1855 160 c-3 -6 1 -7 9 -4 18 7 21 14 7 14 -6 0 -13 -4 -16 -10z"/>
<path d="M1708 153 c7 -3 16 -2 19 1 4 3 -2 6 -13 5 -11 0 -14 -3 -6 -6z"/>
<path d="M2670 156 c0 -2 14 -6 30 -8 17 -3 30 -1 30 4 0 4 -13 8 -30 8 -16 0
-30 -2 -30 -4z"/>
<path d="M810 120 c0 -15 50 -24 63 -11 15 15 1 26 -17 12 -10 -8 -16 -9 -21
-1 -8 13 -25 13 -25 0z"/>
<path d="M2101 101 l-44 -6 94 -33 c129 -46 210 -62 304 -62 72 0 77 2 55 13
-14 7 -26 10 -28 5 -2 -4 -10 -1 -19 7 -8 8 -29 15 -46 16 -26 0 -28 2 -12 8
18 7 16 9 -10 14 -82 16 -129 28 -139 35 -14 10 -98 12 -155 3z"/>
<path d="M2278 103 c6 -2 18 -2 25 0 6 3 1 5 -13 5 -14 0 -19 -2 -12 -5z"/>
<path d="M1988 83 c7 -3 16 -2 19 1 4 3 -2 6 -13 5 -11 0 -14 -3 -6 -6z"/>
<path d="M1910 70 c0 -5 4 -10 9 -10 6 0 13 5 16 10 3 6 -1 10 -9 10 -9 0 -16
-4 -16 -10z"/>
<path d="M1178 63 c7 -3 16 -2 19 1 4 3 -2 6 -13 5 -11 0 -14 -3 -6 -6z"/>
<path d="M1230 59 c0 -3 102 -6 228 -6 151 -1 217 2 197 8 -32 10 -425 8 -425
-2z"/>
<path d="M1805 60 c-3 -5 -2 -10 4 -10 5 0 13 5 16 10 3 6 2 10 -4 10 -5 0
-13 -4 -16 -10z"/>
<path d="M1840 66 c0 -2 11 -6 25 -8 14 -3 25 -1 25 3 0 5 -11 9 -25 9 -14 0
-25 -2 -25 -4z"/>
<path d="M1297 28 c-8 -5 -4 -8 10 -8 12 0 24 -6 26 -12 4 -10 6 -9 6 1 1 11
4 11 16 1 18 -15 65 -5 65 15 0 7 -9 13 -19 12 -11 0 -17 -5 -15 -9 3 -4 0 -8
-5 -8 -6 0 -11 3 -11 8 0 10 -57 10 -73 0z"/>
<path d="M1615 30 c3 -5 13 -10 21 -10 8 0 14 5 14 10 0 6 -9 10 -21 10 -11 0
-17 -4 -14 -10z"/>
<path d="M1739 19 c-18 -15 -19 -19 -6 -19 10 0 17 5 17 10 0 7 6 7 20 0 16
-8 20 -8 20 4 0 23 -27 26 -51 5z"/>
<path d="M1256 15 c-4 -12 2 -15 27 -14 18 1 24 3 15 6 -10 2 -18 9 -18 14 0
15 -17 10 -24 -6z"/>
<path d="M1805 20 c3 -5 11 -10 16 -10 6 0 7 5 4 10 -3 6 -11 10 -16 10 -6 0
-7 -4 -4 -10z"/>
<path d="M1450 10 c0 -5 5 -10 11 -10 5 0 7 5 4 10 -3 6 -8 10 -11 10 -2 0 -4
-4 -4 -10z"/>
<path d="M1600 9 c0 -5 11 -9 25 -9 14 0 25 2 25 4 0 2 -11 6 -25 8 -14 3 -25
1 -25 -3z"/>
</g>
</svg>
