<?xml version="1.0" standalone="no"?>
<!DOCTYPE svg PUBLIC "-//W3C//DTD SVG 20010904//EN"
 "http://www.w3.org/TR/2001/REC-SVG-20010904/DTD/svg10.dtd">
<svg version="1.0" xmlns="http://www.w3.org/2000/svg"
 width="223.000000pt" height="213.000000pt" viewBox="0 0 223.000000 213.000000"
 preserveAspectRatio="xMidYMid meet">

<g transform="translate(0.000000,213.000000) scale(0.100000,-0.100000)"
fill="#000000" stroke="none">
<path d="M660 2024 c33 -7 202 -10 184 -3 -10 4 -59 7 -109 7 -49 0 -83 -2
-75 -4z"/>
<path d="M618 2013 c7 -3 16 -2 19 1 4 3 -2 6 -13 5 -11 0 -14 -3 -6 -6z"/>
<path d="M896 1994 c29 -14 35 -25 60 -115 15 -54 29 -97 31 -95 3 2 -5 39
-17 81 -12 42 -20 80 -18 86 2 5 28 -12 58 -37 l55 -46 -54 51 c-29 29 -55 50
-58 48 -2 -3 -15 6 -28 19 -13 13 -32 24 -42 24 -12 0 -7 -6 13 -16z"/>
<path d="M534 1984 c-18 -14 -18 -14 6 -3 31 14 36 19 24 19 -6 0 -19 -7 -30
-16z"/>
<path d="M436 1913 c-72 -69 -109 -155 -114 -265 -5 -93 7 -142 36 -153 13 -5
13 -3 -2 14 -12 13 -19 43 -23 93 -9 122 33 234 119 317 24 22 41 41 38 41 -3
0 -27 -21 -54 -47z"/>
<path d="M992 1750 c0 -14 2 -19 5 -12 2 6 2 18 0 25 -3 6 -5 1 -5 -13z"/>
<path d="M1126 1697 c3 -21 16 -54 30 -74 13 -20 24 -39 24 -44 0 -8 -45 -46
-62 -51 -7 -3 -5 -19 5 -48 9 -25 17 -40 18 -35 1 6 5 -10 9 -35 5 -28 6 -13
3 40 -4 77 -3 87 16 104 26 24 26 23 -1 66 -13 19 -28 53 -35 75 l-13 40 6
-38z"/>
<path d="M741 1699 c-1 -23 -9 -29 -63 -49 -63 -22 -192 -92 -202 -109 -4 -5
29 11 72 35 85 49 171 84 205 84 13 0 17 3 11 8 -7 4 -14 18 -17 32 l-4 25 -2
-26z"/>
<path d="M953 1683 c9 -2 23 -2 30 0 6 3 -1 5 -18 5 -16 0 -22 -2 -12 -5z"/>
<path d="M838 1673 c7 -3 16 -2 19 1 4 3 -2 6 -13 5 -11 0 -14 -3 -6 -6z"/>
<path d="M1078 1553 c7 -3 16 -2 19 1 4 3 -2 6 -13 5 -11 0 -14 -3 -6 -6z"/>
<path d="M1028 1543 c6 -2 18 -2 25 0 6 3 1 5 -13 5 -14 0 -19 -2 -12 -5z"/>
<path d="M973 1533 c9 -2 23 -2 30 0 6 3 -1 5 -18 5 -16 0 -22 -2 -12 -5z"/>
<path d="M903 1523 c9 -2 25 -2 35 0 9 3 1 5 -18 5 -19 0 -27 -2 -17 -5z"/>
<path d="M833 1513 c9 -2 23 -2 30 0 6 3 -1 5 -18 5 -16 0 -22 -2 -12 -5z"/>
<path d="M1051 1513 l-25 -5 25 -20 24 -19 -34 16 c-22 11 -44 15 -65 10 -17
-3 -47 -6 -66 -7 -25 0 -30 -2 -15 -7 11 -3 37 -17 59 -30 35 -22 37 -25 18
-32 -21 -8 -52 -46 -52 -63 0 -6 7 0 16 12 33 48 108 47 133 -1 6 -12 10 -15
7 -6 -2 9 0 21 6 27 7 7 -3 14 -29 22 -21 7 -50 24 -65 37 -14 14 -28 23 -31
21 -3 -1 -9 1 -14 6 -5 5 -3 6 5 2 6 -4 12 -2 12 3 0 15 42 14 65 -2 11 -8 35
-19 54 -25 30 -11 32 -10 26 6 -7 17 -13 39 -14 55 -1 4 -4 6 -8 6 -5 -1 -19
-4 -32 -6z"/>
<path d="M428 1503 c7 -3 16 -2 19 1 4 3 -2 6 -13 5 -11 0 -14 -3 -6 -6z"/>
<path d="M713 1503 c15 -2 39 -2 55 0 15 2 2 4 -28 4 -30 0 -43 -2 -27 -4z"/>
<path d="M388 1493 c7 -3 16 -2 19 1 4 3 -2 6 -13 5 -11 0 -14 -3 -6 -6z"/>
<path d="M345 1460 c18 -94 25 -110 48 -110 12 0 32 -3 44 -6 19 -5 22 -1 25
27 2 18 9 35 17 37 11 4 13 -6 7 -52 -4 -38 -3 -55 4 -51 5 3 10 22 10 41 0
39 24 104 43 116 7 4 -9 8 -35 8 l-46 0 -17 -51 c-18 -52 -33 -52 -31 -1 1 17
7 27 16 27 8 0 16 8 18 18 3 14 -4 17 -37 17 -39 0 -41 -1 -42 -32 l-2 -33 -4
30 c-3 17 -9 35 -15 40 -7 7 -8 -1 -3 -25z"/>
<path d="M742 1460 c-42 -23 -49 -30 -31 -30 8 0 28 11 44 25 36 29 32 31 -13
5z"/>
<path d="M808 1473 c12 -2 30 -2 40 0 9 3 -1 5 -23 4 -22 0 -30 -2 -17 -4z"/>
<path d="M556 1454 c-9 -23 -7 -31 3 -15 5 8 29 18 53 21 l43 7 -46 2 c-34 1
-48 -3 -53 -15z"/>
<path d="M673 1463 c9 -2 23 -2 30 0 6 3 -1 5 -18 5 -16 0 -22 -2 -12 -5z"/>
<path d="M612 1398 c-28 -15 -38 -24 -30 -30 10 -6 10 -8 -1 -8 -11 0 -11 -3
-1 -15 11 -14 15 -12 31 15 16 26 25 30 62 30 49 0 75 -20 102 -80 15 -33 16
-33 10 -6 -9 44 -42 85 -82 101 -44 19 -40 19 -91 -7z"/>
<path d="M1108 1385 c-4 -16 -2 -31 2 -33 5 -2 7 -9 4 -17 -3 -7 -1 -16 4 -19
10 -6 27 73 17 82 -3 3 -6 -6 -6 -19 -1 -21 -2 -20 -8 6 l-7 30 -6 -30z"/>
<path d="M1425 1383 c-11 -3 -30 -14 -42 -26 -35 -31 -30 -76 19 -164 34 -63
39 -79 30 -94 -19 -30 -14 -34 9 -5 21 27 53 34 64 15 4 -6 14 -8 22 -5 8 3
12 2 9 -3 -3 -4 13 -18 35 -31 33 -18 43 -20 52 -10 9 10 9 11 0 6 -12 -7 -63
12 -63 24 0 4 11 17 24 29 l24 23 -44 106 c-54 132 -73 151 -139 135z m46 -48
c5 4 6 -1 3 -10 -4 -9 0 -23 9 -33 8 -9 17 -34 21 -54 4 -21 12 -38 18 -38 6
0 8 -11 6 -25 -3 -13 -2 -23 1 -21 4 3 12 -7 18 -21 10 -20 9 -22 -1 -14 -7 6
-17 7 -21 3 -5 -4 -4 -1 0 7 6 11 4 13 -8 8 -16 -6 -31 7 -32 28 0 20 -38 87
-52 92 -7 3 -13 9 -13 15 0 5 5 6 10 3 15 -9 12 2 -5 19 -8 8 -12 21 -9 30 6
16 37 26 42 14 2 -5 8 -6 13 -3z"/>
<path d="M1495 1161 c-3 -5 -2 -12 3 -15 5 -3 9 1 9 9 0 17 -3 19 -12 6z"/>
<path d="M637 1362 c-21 -23 -22 -46 -1 -66 21 -22 61 -20 74 3 13 26 13 31
-4 25 -16 -6 -30 22 -15 31 5 4 7 11 4 16 -10 15 -41 10 -58 -9z"/>
<path d="M946 1358 c-13 -19 -14 -25 -2 -43 18 -27 43 -31 67 -9 24 22 24 30
-2 37 -15 4 -20 11 -16 21 10 25 -29 20 -47 -6z"/>
<path d="M911 1324 c0 -11 3 -14 6 -6 3 7 2 16 -1 19 -3 4 -6 -2 -5 -13z"/>
<path d="M590 1286 c0 -3 9 -10 20 -16 11 -6 20 -8 20 -6 0 3 -9 10 -20 16
-11 6 -20 8 -20 6z"/>
<path d="M1020 1280 c-9 -6 -10 -10 -3 -10 6 0 15 5 18 10 8 12 4 12 -15 0z"/>
<path d="M488 1250 c-3 -16 -1 -30 4 -30 4 0 8 14 8 30 0 17 -2 30 -4 30 -2 0
-6 -13 -8 -30z"/>
<path d="M948 1263 c7 -3 16 -2 19 1 4 3 -2 6 -13 5 -11 0 -14 -3 -6 -6z"/>
<path d="M728 1253 c6 -2 18 -2 25 0 6 3 1 5 -13 5 -14 0 -19 -2 -12 -5z"/>
<path d="M472 1179 c-7 -11 -18 -17 -24 -13 -7 4 -8 3 -4 -4 9 -15 -51 -52
-84 -52 -22 -1 -23 -2 -8 -11 21 -11 58 5 101 45 15 14 27 20 27 12 0 -27 -88
-86 -130 -86 -32 0 -23 -17 13 -22 53 -9 97 2 114 28 8 13 20 24 25 24 5 0 0
-13 -11 -29 -19 -26 -37 -36 -95 -55 -10 -4 -17 -9 -14 -11 9 -10 73 18 111
47 27 21 37 25 37 13 0 -8 -4 -15 -10 -15 -6 0 -9 -4 -8 -9 2 -5 -1 -10 -7
-10 -5 -1 -19 -8 -30 -15 -11 -7 -47 -22 -80 -32 l-60 -19 67 -3 c46 -2 77 2
98 13 36 19 37 12 7 -39 -18 -28 -37 -43 -77 -60 -53 -21 -83 -50 -40 -39 42
11 96 -61 145 -191 22 -60 22 -61 4 -80 -18 -19 -20 -19 -88 9 -56 22 -80 27
-126 23 -30 -3 -61 -10 -68 -17 -9 -9 -4 -9 22 0 44 15 128 6 179 -20 24 -12
60 -21 87 -21 37 0 51 6 84 35 21 19 55 42 76 50 34 15 84 60 85 78 0 4 -14
-8 -31 -28 -17 -19 -35 -35 -39 -35 -4 0 -27 38 -50 85 -29 60 -57 98 -91 129
-44 40 -47 45 -30 51 11 3 29 17 39 30 11 13 22 21 26 18 3 -3 6 4 6 16 0 12
4 19 10 16 6 -3 10 -4 10 -1 0 2 -15 14 -33 25 -47 29 -99 98 -112 148 -10 39
-12 41 -23 22z m117 -212 c-26 -38 -59 -66 -77 -67 -6 0 6 16 28 36 21 19 42
44 45 55 4 11 11 17 16 13 5 -3 0 -20 -12 -37z m-16 -129 c44 -45 117 -167
117 -195 0 -4 -17 -19 -38 -33 -46 -31 -57 -36 -48 -21 4 6 2 11 -4 11 -6 0
-8 5 -5 10 3 6 1 10 -4 10 -6 0 -11 7 -11 15 0 21 -22 65 -30 60 -4 -2 -6 9
-5 25 1 16 -2 27 -5 25 -4 -3 -13 9 -20 25 -7 16 -16 27 -21 24 -11 -6 8 45
23 63 10 13 -2 19 -27 13 -5 -1 -19 -3 -30 -5 -11 -1 -24 -3 -29 -4 -5 0 1
-13 15 -28 l24 -27 -31 25 c-17 13 -30 26 -28 27 5 6 78 31 92 32 7 0 37 -24
65 -52z"/>
<path d="M885 1165 c-16 -7 -23 -14 -14 -14 8 -1 24 6 35 14 24 18 18 18 -21
0z"/>
<path d="M698 1123 c-2 -4 6 -19 19 -33 14 -14 21 -18 18 -8 -5 12 0 18 17 21
22 4 22 4 -2 6 -15 0 -31 6 -37 12 -6 6 -13 7 -15 2z"/>
<path d="M1077 1095 c-15 -19 -25 -40 -22 -45 8 -12 105 -13 124 -1 10 6 2 11
-25 15 -43 8 -72 22 -63 31 4 3 18 0 33 -6 22 -11 29 -10 43 4 15 15 15 16 -4
11 -12 -3 -24 -1 -27 5 -4 5 -14 7 -23 4 -11 -4 -14 -3 -9 5 14 23 1 11 -27
-23z"/>
<path d="M950 1105 c0 -22 -42 -45 -97 -55 -26 -4 -38 -8 -26 -9 25 -1 40 -18
27 -31 -11 -11 -76 19 -69 30 5 9 -33 25 -41 18 -2 -3 10 -18 27 -34 25 -24
39 -29 79 -29 57 0 88 24 115 88 14 33 14 37 0 37 -8 0 -15 -7 -15 -15z"/>
<path d="M807 1093 c18 -2 50 -2 70 0 21 2 7 4 -32 4 -38 0 -55 -2 -38 -4z"/>
<path d="M1654 1085 c-18 -13 -18 -14 4 -8 12 3 25 9 28 14 8 14 -10 11 -32
-6z"/>
<path d="M979 989 c-57 -60 -60 -69 -26 -69 17 0 18 2 6 17 -9 12 -3 10 18 -5
18 -13 35 -27 38 -32 4 -6 11 -10 16 -10 6 0 2 13 -7 29 -10 17 -20 28 -24 26
-3 -2 -6 5 -6 16 0 21 7 24 23 8 15 -15 126 -24 148 -12 15 9 11 11 -20 17
-51 10 -115 36 -115 47 0 11 13 12 26 0 17 -16 78 -31 87 -22 5 5 -11 11 -38
15 -25 4 -49 14 -52 22 -8 20 -12 17 -74 -47z"/>
<path d="M1482 986 c15 -13 33 -26 40 -28 11 -4 10 -8 -1 -22 -12 -14 -12 -16
3 -10 12 5 19 0 23 -15 3 -11 9 -18 15 -15 5 3 6 15 2 26 -4 13 -1 24 7 29 10
6 6 9 -12 9 -14 0 -44 11 -65 25 l-39 26 27 -25z"/>
<path d="M1644 984 c-18 -14 -18 -15 4 -4 12 6 22 13 22 15 0 8 -5 6 -26 -11z"/>
<path d="M1688 993 c7 -3 16 -2 19 1 4 3 -2 6 -13 5 -11 0 -14 -3 -6 -6z"/>
<path d="M1417 913 c3 -43 8 -91 13 -106 5 -15 7 -35 4 -45 -5 -14 -4 -14 4
-3 9 13 13 13 28 0 11 -8 8 -1 -7 19 -20 28 -25 48 -27 115 -2 45 -7 86 -11
90 -5 4 -6 -27 -4 -70z"/>
<path d="M1735 980 c27 -12 43 -12 25 0 -8 5 -22 9 -30 9 -10 0 -8 -3 5 -9z"/>
<path d="M1801 977 c-1 -11 -6 -16 -13 -12 -7 3 -3 -2 10 -11 12 -9 22 -26 22
-38 0 -11 5 -28 10 -36 7 -11 8 -5 4 20 -4 19 -10 40 -14 45 -4 6 -10 19 -13
30 -4 17 -5 17 -6 2z"/>
<path d="M1600 970 c-8 -5 -11 -12 -7 -16 4 -4 13 -2 19 4 15 15 7 24 -12 12z"/>
<path d="M684 956 c11 -9 24 -16 30 -16 12 0 7 5 -24 19 -24 11 -24 11 -6 -3z"/>
<path d="M884 918 c-21 -10 -21 -10 11 -59 36 -52 55 -122 55 -199 0 -48 0
-48 -42 -63 -24 -9 -35 -16 -26 -16 9 -1 28 3 42 9 21 8 26 6 26 -6 0 -8 -10
-18 -22 -23 -18 -6 -9 -10 42 -19 36 -6 101 -13 145 -15 67 -3 73 -2 39 6 -45
10 -49 19 -74 164 -19 108 -71 223 -102 223 -6 0 -2 -10 9 -22 47 -52 78 -152
88 -283 6 -78 6 -79 -10 -51 -14 23 -22 27 -46 24 -20 -3 -29 0 -29 9 0 8 4
11 10 8 6 -4 6 3 0 21 -13 33 -31 109 -36 151 -3 18 -8 43 -13 56 -7 19 -5 27
9 37 26 18 8 40 -32 40 -17 0 -27 4 -23 10 7 12 6 12 -21 -2z m21 -28 c10 -11
16 -20 13 -20 -3 0 -13 9 -23 20 -10 11 -16 20 -13 20 3 0 13 -9 23 -20z m149
-326 c6 -15 4 -15 -11 -3 -15 12 -16 12 -10 -3 4 -12 2 -18 -8 -18 -17 0 -17
2 -9 24 8 21 30 20 38 0z"/>
<path d="M1678 893 c7 -3 16 -2 19 1 4 3 -2 6 -13 5 -11 0 -14 -3 -6 -6z"/>
<path d="M599 872 c15 -28 56 -56 73 -49 8 3 6 6 -5 6 -11 1 -33 16 -50 34
-21 22 -27 25 -18 9z"/>
<path d="M1057 879 c7 -7 15 -10 18 -7 3 3 -2 9 -12 12 -14 6 -15 5 -6 -5z"/>
<path d="M1635 880 c-3 -6 1 -7 9 -4 18 7 21 14 7 14 -6 0 -13 -4 -16 -10z"/>
<path d="M1573 841 c10 -26 12 -28 23 -13 10 13 10 18 1 21 -7 2 -17 8 -24 13
-9 7 -9 3 0 -21z"/>
<path d="M768 813 c7 -3 16 -2 19 1 4 3 -2 6 -13 5 -11 0 -14 -3 -6 -6z"/>
<path d="M1675 788 c-16 -10 -33 -19 -38 -21 -4 -1 -1 -25 8 -52 8 -28 15 -52
15 -54 0 -5 -61 5 -85 13 -15 6 -14 4 3 -6 23 -14 23 -14 4 -39 -10 -13 -32
-52 -47 -87 -35 -79 -73 -112 -126 -112 -75 0 -127 46 -140 125 l-6 40 -2 -35
c-2 -75 68 -140 152 -140 41 0 53 5 81 33 18 17 43 58 56 90 31 79 55 107 91
107 32 0 37 -11 13 -30 -31 -27 -65 -99 -74 -161 -5 -35 -12 -78 -16 -96 -5
-24 -1 -36 15 -52 60 -60 310 10 460 129 107 84 119 158 32 185 -14 4 -42 20
-64 36 -42 31 -131 53 -170 44 -19 -5 -28 -2 -36 13 -6 11 -8 22 -5 24 3 3 -2
8 -11 11 -19 8 -19 -3 -1 -28 13 -18 11 -21 -15 -32 -16 -7 -37 -10 -47 -7
-14 5 -15 4 -2 -5 9 -7 10 -11 3 -11 -6 0 -15 5 -18 11 -4 6 -13 8 -20 5 -9
-3 -12 2 -10 15 2 11 0 17 -6 14 -5 -4 -9 -2 -9 3 0 14 32 39 63 51 16 6 26
15 23 20 -11 17 -42 17 -71 -1z m322 -133 c36 -24 36 -25 12 -25 -86 0 -298
-91 -373 -161 -40 -36 -46 -39 -46 -20 0 11 4 21 8 21 17 0 54 39 47 49 -4 7
1 8 12 4 16 -6 17 -5 3 12 -10 12 -10 16 -2 11 16 -10 42 11 36 29 -3 7 -12
16 -21 19 -10 4 -13 2 -10 -8 4 -10 1 -13 -9 -9 -12 5 -11 10 8 30 83 89 242
112 335 48z m101 -57 c26 -26 -2 -119 -30 -102 -6 4 -8 2 -4 -4 17 -27 -190
-146 -309 -177 -106 -27 -185 -15 -185 28 0 22 53 87 109 133 60 49 126 86
206 115 59 21 195 25 213 7z"/>
<path d="M1901 544 c-114 -30 -241 -119 -241 -168 0 -13 7 -27 16 -30 22 -8
75 -6 99 4 13 6 4 7 -26 3 -26 -3 -49 -1 -52 5 -4 5 10 12 33 15 51 7 130 37
130 50 0 6 -4 6 -12 0 -7 -6 -35 -15 -61 -22 -38 -9 -52 -9 -63 0 -12 10 -13
8 -7 -7 6 -17 5 -18 -11 -4 -17 14 -16 17 23 52 45 39 173 98 214 98 14 0 27
-6 30 -12 3 -10 8 -9 23 2 18 14 18 14 5 -3 -8 -11 -21 -15 -32 -12 -15 5 -17
3 -12 -11 4 -12 3 -15 -6 -10 -7 5 -10 2 -9 -6 2 -7 -5 -12 -14 -12 -10 1 -15
-2 -13 -7 3 -4 -4 -13 -15 -19 -11 -6 -20 -16 -20 -22 0 -6 8 -4 18 5 10 10
24 17 30 17 7 0 30 16 52 36 50 46 52 37 3 -18 -36 -39 -36 -40 -7 -19 16 12
38 35 47 51 16 26 16 30 1 44 -19 19 -52 19 -123 0z"/>
<path d="M1736 408 c3 -5 10 -6 15 -3 13 9 11 12 -6 12 -8 0 -12 -4 -9 -9z"/>
<path d="M858 782 c9 -10 19 -17 21 -16 6 5 -20 34 -30 34 -5 0 -1 -8 9 -18z"/>
<path d="M1590 793 c0 -6 8 -17 18 -24 16 -13 16 -13 2 6 -8 11 -16 22 -17 24
-2 2 -3 0 -3 -6z"/>
<path d="M792 740 c0 -14 2 -19 5 -12 2 6 2 18 0 25 -3 6 -5 1 -5 -13z"/>
<path d="M1406 724 c-5 -14 -4 -15 9 -4 17 14 19 20 6 20 -5 0 -12 -7 -15 -16z"/>
<path d="M871 715 c0 -11 -17 -42 -36 -69 -19 -27 -35 -55 -35 -63 0 -7 -6
-13 -12 -14 -7 -1 -2 -5 12 -9 34 -11 88 -12 94 -2 3 5 -13 9 -34 9 -48 0 -59
8 -42 31 39 56 63 104 59 119 -4 16 -5 15 -6 -2z"/>
<path d="M1307 651 c-23 -22 -40 -41 -37 -43 3 -3 24 15 47 39 53 54 46 56
-10 4z"/>
<path d="M189 623 c-13 -17 -13 -17 6 -3 11 8 22 16 24 17 2 2 0 3 -6 3 -6 0
-17 -8 -24 -17z"/>
<path d="M203 540 c-20 -20 -34 -45 -38 -70 -7 -42 7 -101 29 -120 8 -6 6 6
-6 29 -26 53 -17 110 24 157 37 42 32 44 -9 4z"/>
<path d="M1223 497 c32 -30 32 -31 11 -51 -8 -9 -11 -16 -5 -16 5 0 14 8 20
17 12 22 -1 48 -32 64 -18 10 -17 7 6 -14z"/>
<path d="M945 470 c-3 -5 6 -12 20 -16 14 -3 25 -10 25 -15 0 -11 -38 -31 -48
-25 -4 3 -14 1 -22 -5 -13 -7 -12 -9 3 -9 19 0 23 -15 7 -25 -6 -4 -16 -21
-24 -39 -14 -33 -16 -34 -121 -60 -11 -3 4 -3 34 -1 56 5 86 22 97 58 4 12 12
27 19 34 7 7 15 17 17 22 1 5 10 11 18 13 8 2 19 8 25 15 5 7 30 14 53 17 43
4 44 4 39 -22 l-6 -27 12 28 c10 24 15 27 42 21 16 -3 41 -13 55 -22 21 -13
23 -13 13 0 -7 8 -11 17 -8 20 3 3 -43 11 -102 18 -60 7 -116 16 -125 21 -10
6 -19 5 -23 -1z"/>
<path d="M1474 388 l-19 -23 23 19 c21 18 27 26 19 26 -2 0 -12 -10 -23 -22z"/>
<path d="M1318 375 c24 -10 39 -12 50 -5 10 5 15 10 12 10 -3 1 -25 3 -50 6
l-45 5 33 -16z"/>
<path d="M510 331 c0 -5 24 -12 53 -15 28 -4 63 -9 77 -12 l25 -5 -25 14 c-29
16 -130 30 -130 18z"/>
<path d="M1348 333 c6 -2 18 -2 25 0 6 3 1 5 -13 5 -14 0 -19 -2 -12 -5z"/>
<path d="M167 319 c7 -7 15 -10 18 -7 3 3 -2 9 -12 12 -14 6 -15 5 -6 -5z"/>
<path d="M383 323 c-21 -3 -37 -12 -45 -26 -10 -20 -10 -21 6 -8 10 8 43 20
74 27 54 12 34 15 -35 7z"/>
<path d="M678 293 c7 -3 16 -2 19 1 4 3 -2 6 -13 5 -11 0 -14 -3 -6 -6z"/>
<path d="M718 283 c6 -2 18 -2 25 0 6 3 1 5 -13 5 -14 0 -19 -2 -12 -5z"/>
<path d="M375 70 c-3 -5 -1 -10 4 -10 6 0 11 5 11 10 0 6 -2 10 -4 10 -3 0 -8
-4 -11 -10z"/>
</g>
</svg>
