<?xml version="1.0" standalone="no"?>
<!DOCTYPE svg PUBLIC "-//W3C//DTD SVG 20010904//EN"
 "http://www.w3.org/TR/2001/REC-SVG-20010904/DTD/svg10.dtd">
<svg version="1.0" xmlns="http://www.w3.org/2000/svg"
 width="273.000000pt" height="182.000000pt" viewBox="0 0 273.000000 182.000000"
 preserveAspectRatio="xMidYMid meet">

<g transform="translate(0.000000,182.000000) scale(0.100000,-0.100000)"
fill="#000000" stroke="none">
<path d="M0 910 l0 -910 705 0 c542 0 705 3 705 12 0 9 3 9 12 0 7 -7 25 -12
41 -12 22 0 27 4 23 18 -18 59 -18 72 -2 78 11 4 16 16 14 33 -3 24 0 26 32
24 22 -1 41 -9 52 -23 16 -20 18 -21 18 -4 0 11 -14 28 -30 39 -34 22 -39 41
-12 48 11 3 7 5 -10 6 -14 0 -28 -5 -31 -11 -2 -8 -8 -9 -13 -4 -5 5 -4 11 4
13 6 3 10 9 6 14 -3 5 -2 9 3 8 43 -8 42 10 -5 41 -20 14 -40 30 -44 36 -5 7
-30 18 -58 25 -46 12 -70 32 -51 43 12 8 81 -6 81 -16 0 -5 5 -6 11 -2 6 3 -7
17 -33 32 -23 14 -52 34 -63 45 -11 10 -32 21 -47 24 -16 3 -28 9 -28 13 0 4
-11 11 -25 14 -14 4 -25 11 -25 16 0 14 58 3 76 -14 8 -9 25 -16 36 -16 12 0
19 -3 15 -6 -6 -6 79 -54 96 -54 4 0 19 -8 34 -17 30 -20 35 -21 83 -28 19 -2
26 -2 15 2 -11 3 -31 14 -44 24 -13 11 -28 19 -33 19 -6 0 -23 9 -39 21 -16
11 -29 17 -29 14 0 -4 -7 0 -15 7 -49 45 -91 68 -122 68 -42 0 -57 14 -49 44
6 26 -8 38 -16 14 -5 -13 -10 -9 -51 39 -15 17 -16 26 -8 42 6 11 17 18 25 15
8 -3 17 -1 21 5 10 17 20 13 54 -20 18 -17 39 -28 46 -25 10 3 12 0 8 -11 -5
-13 -2 -15 11 -10 9 4 15 3 11 -2 -3 -5 15 -31 40 -57 25 -27 45 -49 45 -51 0
-10 -40 16 -62 41 -34 37 -48 28 -16 -9 41 -49 47 -53 103 -70 30 -10 55 -22
55 -26 0 -5 6 -9 14 -9 7 0 25 -9 40 -21 21 -17 26 -18 26 -5 0 9 -5 16 -11
16 -6 0 -8 7 -5 16 5 14 1 16 -22 11 -24 -5 -31 -2 -41 19 -7 15 -22 27 -41
30 -16 4 -30 11 -30 17 0 6 -15 27 -32 46 -20 21 -23 27 -7 13 14 -12 30 -22
37 -22 18 0 25 20 12 35 -6 8 -9 19 -5 25 3 5 1 10 -4 10 -6 0 -11 6 -11 14 0
14 -57 66 -73 66 -5 0 1 8 14 19 25 20 42 18 71 -11 10 -10 23 -16 28 -13 6 4
10 2 10 -4 0 -5 9 -13 20 -16 11 -4 20 -12 18 -18 -1 -7 10 -25 24 -42 15 -16
36 -41 48 -55 12 -14 19 -19 15 -12 -13 25 9 10 60 -42 30 -30 56 -52 59 -48
3 3 6 -2 6 -11 0 -10 7 -17 16 -17 10 0 14 -5 10 -16 -3 -8 -2 -12 3 -9 6 3
14 -3 20 -12 8 -16 14 -16 42 -6 26 10 35 10 42 0 5 -7 6 -3 2 11 -5 16 -2 22
9 22 9 0 16 5 16 10 0 6 -5 10 -12 10 -6 0 -8 3 -5 6 4 4 13 2 21 -5 11 -9 15
-8 20 4 3 8 15 15 26 15 19 0 24 19 7 31 -5 3 -2 9 7 12 9 4 15 3 15 -1 -3
-18 2 -26 9 -16 4 5 53 43 110 83 56 40 102 77 102 82 0 5 -12 14 -26 19 -30
12 -28 29 5 41 18 7 22 6 19 -10 -4 -23 1 -26 30 -17 12 4 20 12 17 17 -4 5 2
9 12 9 22 0 56 37 43 45 -6 4 -10 1 -10 -4 0 -6 -5 -11 -11 -11 -6 0 -9 6 -6
14 6 14 -97 86 -242 171 -57 33 -66 36 -87 24 -13 -7 -24 -16 -24 -20 0 -13
-77 -88 -84 -82 -3 4 -6 1 -6 -5 0 -6 31 -33 70 -59 50 -35 69 -54 70 -70 0
-15 -6 -23 -17 -23 -15 0 -16 2 -3 10 14 9 7 14 -13 11 -5 -1 -6 3 -2 9 8 13
-204 153 -222 146 -7 -3 -14 1 -14 9 -2 23 -4 29 -10 40 -4 6 -12 27 -18 48
-7 20 -18 37 -24 37 -7 0 -6 4 3 10 11 7 11 10 2 10 -19 0 -45 67 -33 87 7 12
2 26 -17 51 -23 30 -24 34 -9 49 14 14 19 14 54 -8 34 -20 36 -21 21 -3 -10
12 -18 25 -18 31 0 18 -27 23 -59 11 -31 -13 -38 -29 -61 -150 -6 -32 -14 -58
-18 -59 -63 -9 -101 -7 -112 6 -7 8 -25 15 -41 15 -22 0 -44 16 -94 65 -37 36
-71 65 -76 65 -6 0 -7 -4 -4 -10 3 -5 2 -10 -3 -10 -6 0 -13 11 -16 24 -6 25
-28 28 -58 10 -7 -4 -8 -3 -4 4 5 8 2 10 -9 6 -9 -4 -15 -15 -13 -27 2 -11 -3
-22 -10 -24 -6 -3 -12 0 -12 6 0 6 -8 11 -17 11 -14 0 -15 2 -5 9 11 6 11 20
4 61 -6 30 -8 60 -5 67 3 7 0 13 -6 13 -7 0 8 39 32 88 106 213 150 301 177
350 l29 52 -118 0 -117 0 -16 -33 c-8 -17 -19 -47 -23 -65 -6 -31 -8 -32 -21
-15 -14 17 -15 17 -9 -4 4 -16 0 -25 -15 -33 -21 -11 -40 -6 -40 10 0 5 8 11
18 13 13 4 11 5 -5 6 -22 1 -34 21 -13 21 6 0 10 5 10 10 0 6 -8 10 -17 10
-10 0 -14 3 -8 8 6 4 11 19 12 34 0 19 -5 28 -21 32 -11 3 -216 6 -453 6
l-433 0 0 -910z m976 655 c-4 -14 -2 -25 4 -25 5 0 9 -10 9 -22 -1 -18 -2 -19
-6 -5 -2 9 -9 15 -14 12 -5 -4 -9 3 -9 14 0 12 -5 21 -11 21 -5 0 -8 4 -5 9 4
5 0 12 -6 14 -7 3 0 6 16 6 25 1 28 -2 22 -24z m14 -85 c0 -5 -2 -10 -4 -10
-3 0 -8 5 -11 10 -3 6 -1 10 4 10 6 0 11 -4 11 -10z m30 -356 c0 -2 -7 -4 -15
-4 -8 0 -15 4 -15 10 0 5 7 7 15 4 8 -4 15 -8 15 -10z m-67 -5 c-7 -7 -8 -18
-3 -28 4 -9 13 -28 18 -43 11 -26 33 -31 62 -13 5 3 17 2 26 -3 11 -6 13 -11
5 -16 -6 -4 -11 -2 -11 5 0 8 -4 8 -13 1 -7 -6 -24 -11 -37 -11 -14 -1 -35 -1
-48 -1 -13 0 -21 -4 -17 -9 3 -6 -8 -6 -27 -1 -42 11 -148 18 -148 11 0 -11
-120 -8 -120 3 0 6 -4 5 -8 -2 -7 -10 -14 -10 -36 2 -15 7 -24 16 -19 19 14 9
187 48 216 49 15 1 27 4 27 9 0 4 19 10 43 14 23 4 49 11 57 16 23 13 47 12
33 -2z m72 -19 c3 -5 1 -10 -4 -10 -6 0 -11 5 -11 10 0 6 2 10 4 10 3 0 8 -4
11 -10z m50 -30 c0 -7 -5 -15 -12 -17 -7 -3 -11 4 -10 16 1 23 22 23 22 1z
m-70 -19 c-6 -5 -25 10 -25 20 0 5 6 4 14 -3 8 -7 12 -15 11 -17z m604 -72 c2
-7 -11 -3 -30 9 -18 11 -36 27 -38 33 -2 7 11 3 30 -9 18 -11 36 -27 38 -33z
m-504 5 c17 -7 46 -27 65 -44 l35 -31 -35 7 c-41 8 -52 13 -46 22 13 21 -31
48 -81 51 -7 1 -13 6 -13 12 0 11 24 6 75 -17z m-195 0 c0 -2 -7 -4 -15 -4 -8
0 -15 4 -15 10 0 5 7 7 15 4 8 -4 15 -8 15 -10z m437 -180 c-3 -3 -12 -4 -19
-1 -8 3 -5 6 6 6 11 1 17 -2 13 -5z m-40 -10 c-3 -3 -12 -4 -19 -1 -8 3 -5 6
6 6 11 1 17 -2 13 -5z m33 -84 c0 -5 -2 -10 -4 -10 -3 0 -8 5 -11 10 -3 6 -1
10 4 10 6 0 11 -4 11 -10z m790 -9 c0 -5 3 -18 7 -28 6 -16 5 -16 -10 -4 -19
15 -23 41 -7 41 6 0 10 -4 10 -9z m-500 -72 c0 -4 -7 -6 -15 -3 -8 4 -15 10
-15 15 0 4 7 6 15 3 8 -4 15 -10 15 -15z m-577 -19 c15 -16 27 -34 27 -39 0
-5 7 -11 15 -15 8 -3 20 -17 25 -31 5 -14 14 -25 20 -25 5 0 10 -9 10 -20 0
-11 5 -20 12 -20 6 0 9 -2 6 -5 -12 -13 -56 19 -81 60 -16 24 -39 54 -52 67
-24 22 -34 58 -17 58 5 0 21 -13 35 -30z m377 9 c0 -5 -4 -9 -10 -9 -5 0 -10
7 -10 16 0 8 5 12 10 9 6 -3 10 -10 10 -16z m-215 -88 c-6 -5 -25 10 -25 20 0
5 6 4 14 -3 8 -7 12 -15 11 -17z m-686 -102 c-18 -41 -36 -78 -41 -83 -4 -6
-8 -19 -8 -29 0 -16 -3 -17 -14 -7 -17 14 -11 36 19 70 13 14 28 43 35 65 13
41 30 69 37 61 2 -2 -11 -37 -28 -77z m736 41 c3 -5 -1 -10 -10 -10 -9 0 -13
5 -10 10 3 6 8 10 10 10 2 0 7 -4 10 -10z m-58 -15 c0 -8 -4 -12 -9 -9 -5 3
-6 10 -3 15 9 13 12 11 12 -6z m-90 -11 c-3 -3 -12 -4 -19 -1 -8 3 -5 6 6 6
11 1 17 -2 13 -5z m160 0 c-3 -3 -12 -4 -19 -1 -8 3 -5 6 6 6 11 1 17 -2 13
-5z m71 -39 c3 -3 0 -11 -6 -17 -9 -9 -18 -8 -37 2 -37 20 -33 41 6 30 18 -5
34 -12 37 -15z m-293 5 c3 -5 1 -10 -4 -10 -6 0 -11 5 -11 10 0 6 2 10 4 10 3
0 8 -4 11 -10z m135 -4 c0 -8 -4 -18 -10 -21 -5 -3 -10 3 -10 14 0 12 5 21 10
21 6 0 10 -6 10 -14z m40 -38 c0 -6 -6 -5 -15 2 -8 7 -15 14 -15 16 0 2 7 1
15 -2 8 -4 15 -11 15 -16z m-502 -63 c-3 -3 -9 2 -12 12 -6 14 -5 15 5 6 7 -7
10 -15 7 -18z m559 -187 c-3 -8 -6 -5 -6 6 -1 11 2 17 5 13 3 -3 4 -12 1 -19z
m160 -90 c-3 -7 -5 -2 -5 12 0 14 2 19 5 13 2 -7 2 -19 0 -25z"/>
<path d="M768 1033 c6 -2 18 -2 25 0 6 3 1 5 -13 5 -14 0 -19 -2 -12 -5z"/>
<path d="M1331 1773 c-7 -27 -14 -57 -17 -68 -5 -19 0 -20 91 -23 57 -2 110 2
129 9 33 12 34 13 32 70 l-1 59 -111 0 -111 0 -12 -47z"/>
<path d="M1560 1680 c8 -5 22 -10 30 -10 13 0 13 1 0 10 -8 5 -22 10 -30 10
-13 0 -13 -1 0 -10z"/>
<path d="M2598 1543 c6 -3 9 -10 6 -15 -5 -8 5 -9 32 -5 21 4 51 7 67 7 15 0
27 4 27 9 0 4 -33 8 -72 8 -40 0 -67 -2 -60 -4z"/>
<path d="M2520 1517 c0 -5 -4 -6 -9 -3 -5 4 -20 2 -33 -3 -20 -9 -18 -10 17
-10 22 0 54 6 70 14 l30 14 -37 -2 c-21 -1 -38 -6 -38 -10z"/>
<path d="M1960 1510 c0 -5 10 -19 23 -31 15 -16 17 -20 5 -16 -9 3 -19 0 -22
-9 -5 -12 3 -14 47 -8 28 4 62 11 75 15 13 5 36 9 52 9 16 0 36 3 44 6 15 6
15 8 -1 20 -21 16 -37 18 -28 4 8 -13 -1 -13 -27 1 -17 9 -23 8 -30 -6 -11
-19 -51 -14 -75 10 -16 17 -63 20 -63 5z"/>
<path d="M2243 1496 c-3 -5 0 -6 8 -4 8 3 21 2 29 -2 8 -3 38 -1 65 6 l50 12
-73 -2 c-41 0 -76 -5 -79 -10z"/>
<path d="M2418 1503 c7 -3 16 -2 19 1 4 3 -2 6 -13 5 -11 0 -14 -3 -6 -6z"/>
<path d="M1816 1401 c-4 -6 -11 -9 -16 -6 -5 3 -8 -12 -5 -35 2 -22 0 -40 -4
-40 -4 0 -8 -6 -8 -13 0 -7 -3 -24 -6 -39 -7 -25 -4 -24 38 17 25 24 57 60 70
79 25 36 25 37 2 25 -12 -7 -26 -18 -30 -25 -11 -19 -28 -18 -21 0 8 20 -11
53 -20 37z"/>
<path d="M2152 1343 c-6 -2 -10 -9 -6 -14 7 -12 51 -12 59 1 3 6 2 10 -4 10
-5 0 -15 2 -23 4 -7 3 -19 2 -26 -1z"/>
<path d="M2090 1210 c-12 -8 -11 -10 8 -10 12 0 22 5 22 10 0 13 -11 13 -30 0z"/>
<path d="M1731 1106 c-15 -18 -4 -174 13 -198 6 -8 22 -18 36 -21 14 -4 19 -4
13 -1 -17 8 -16 24 1 24 8 0 19 13 24 29 6 16 24 42 41 57 l31 27 -67 49 c-37
26 -70 48 -74 48 -4 0 -12 -6 -18 -14z"/>
<path d="M1395 720 c-3 -5 1 -10 9 -10 8 0 18 5 21 10 3 6 -1 10 -9 10 -8 0
-18 -4 -21 -10z"/>
<path d="M1215 620 c3 -5 11 -10 16 -10 6 0 7 5 4 10 -3 6 -11 10 -16 10 -6 0
-7 -4 -4 -10z"/>
<path d="M1294 611 c11 -11 23 -21 28 -21 14 0 -1 19 -25 31 -22 12 -22 12 -3
-10z"/>
<path d="M1526 615 c4 -8 11 -15 16 -15 6 0 5 6 -2 15 -7 8 -14 15 -16 15 -2
0 -1 -7 2 -15z"/>
<path d="M1490 552 c0 -5 10 -13 23 -19 43 -21 55 -22 60 -4 3 14 -1 16 -23
13 -15 -2 -31 1 -34 7 -8 13 -26 15 -26 3z"/>
<path d="M1520 320 c0 -11 7 -14 53 -24 18 -4 27 -13 27 -26 0 -11 -4 -20 -10
-20 -5 0 -10 -7 -10 -15 0 -8 5 -15 11 -15 6 0 8 -9 4 -20 -3 -11 -2 -20 3
-20 6 0 10 25 11 55 0 49 -3 56 -28 75 -31 21 -61 26 -61 10z"/>
<path d="M1705 290 c3 -5 10 -10 16 -10 5 0 9 5 9 10 0 6 -7 10 -16 10 -8 0
-12 -4 -9 -10z"/>
<path d="M1740 270 c0 -5 5 -10 10 -10 6 0 10 5 10 10 0 6 -4 10 -10 10 -5 0
-10 -4 -10 -10z"/>
<path d="M1550 130 c0 -5 5 -10 10 -10 6 0 10 5 10 10 0 6 -4 10 -10 10 -5 0
-10 -4 -10 -10z"/>
<path d="M1555 40 c-10 -11 -24 -19 -31 -18 -7 2 -14 -1 -16 -7 -4 -15 61 -18
78 -4 18 15 18 49 1 49 -8 0 -22 -9 -32 -20z"/>
</g>
</svg>
