<?xml version="1.0" standalone="no"?>
<!DOCTYPE svg PUBLIC "-//W3C//DTD SVG 20010904//EN"
 "http://www.w3.org/TR/2001/REC-SVG-20010904/DTD/svg10.dtd">
<svg version="1.0" xmlns="http://www.w3.org/2000/svg"
 width="900.000000pt" height="1350.000000pt" viewBox="0 0 900.000000 1350.000000"
 preserveAspectRatio="xMidYMid meet">

<g transform="translate(0.000000,1350.000000) scale(0.100000,-0.100000)"
fill="#000000" stroke="none">
<path d="M0 6750 l0 -6750 4500 0 4500 0 0 6750 0 6750 -4500 0 -4500 0 0
-6750z m3940 6640 c0 -5 -4 -10 -10 -10 -5 0 -10 5 -10 10 0 6 5 10 10 10 6 0
10 -4 10 -10z m-1820 -100 c0 -5 -7 -10 -16 -10 -8 0 -12 5 -9 10 3 6 10 10
16 10 5 0 9 -4 9 -10z m780 0 c0 -5 -7 -10 -15 -10 -8 0 -15 5 -15 10 0 6 7
10 15 10 8 0 15 -4 15 -10z m3248 -1 c-2 -6 -8 -10 -13 -10 -5 0 -11 4 -13 10
-2 6 4 11 13 11 9 0 15 -5 13 -11z m-118 -9 c0 -5 -4 -10 -10 -10 -5 0 -10 5
-10 10 0 6 5 10 10 10 6 0 10 -4 10 -10z m-3330 -110 c0 -5 -4 -10 -9 -10 -6
0 -13 5 -16 10 -3 6 1 10 9 10 9 0 16 -4 16 -10z m1140 -450 c0 -5 -6 -10 -14
-10 -8 0 -18 5 -21 10 -3 6 3 10 14 10 12 0 21 -4 21 -10z m-3075 -21 c10 -15
-1 -23 -20 -15 -9 3 -13 10 -10 16 8 13 22 13 30 -1z m3110 -59 c3 -5 -1 -10
-10 -10 -9 0 -13 5 -10 10 3 6 8 10 10 10 2 0 7 -4 10 -10z m3765 -50 c0 -5
-7 -10 -15 -10 -8 0 -15 5 -15 10 0 6 7 10 15 10 8 0 15 -4 15 -10z m-6110
-20 c0 -5 -7 -10 -15 -10 -8 0 -15 5 -15 10 0 6 7 10 15 10 8 0 15 -4 15 -10z
m2743 -95 c1 -5 -6 -11 -15 -13 -11 -2 -18 3 -18 13 0 17 30 18 33 0z m295
-48 c2 -9 -3 -15 -12 -13 -21 3 -29 13 -21 26 9 15 29 7 33 -13z m1897 -137
c3 -6 -1 -13 -10 -16 -19 -8 -30 0 -20 15 8 14 22 14 30 1z m70 -80 c-3 -5
-13 -10 -21 -10 -8 0 -14 5 -14 10 0 6 9 10 21 10 11 0 17 -4 14 -10z m-428
-56 c-3 -3 -12 -4 -19 -1 -8 3 -5 6 6 6 11 1 17 -2 13 -5z m-4292 -43 c7 -12
-12 -24 -25 -16 -11 7 -4 25 10 25 5 0 11 -4 15 -9z m4120 -62 c10 -15 -1 -23
-20 -15 -9 3 -13 10 -10 16 8 13 22 13 30 -1z m625 -175 c0 -2 -7 -4 -15 -4
-8 0 -15 4 -15 10 0 5 7 7 15 4 8 -4 15 -8 15 -10z m312 1 c0 -5 -5 -11 -11
-13 -6 -2 -11 4 -11 13 0 9 5 15 11 13 6 -2 11 -8 11 -13z m873 -95 c3 -5 -1
-10 -9 -10 -9 0 -16 5 -16 10 0 6 4 10 9 10 6 0 13 -4 16 -10z m-4455 -100 c0
-5 -4 -10 -9 -10 -6 0 -13 5 -16 10 -3 6 1 10 9 10 9 0 16 -4 16 -10z m680
-80 c0 -5 -4 -10 -10 -10 -5 0 -10 5 -10 10 0 6 5 10 10 10 6 0 10 -4 10 -10z
m-1900 -91 c0 -5 -7 -9 -15 -9 -8 0 -15 7 -15 15 0 9 6 12 15 9 8 -4 15 -10
15 -15z m775 -9 c-3 -5 -13 -10 -21 -10 -8 0 -14 5 -14 10 0 6 9 10 21 10 11
0 17 -4 14 -10z m675 0 c0 -5 -7 -10 -16 -10 -8 0 -12 5 -9 10 3 6 10 10 16
10 5 0 9 -4 9 -10z m-1660 -54 c0 -3 -4 -8 -10 -11 -5 -3 -10 -1 -10 4 0 6 5
11 10 11 6 0 10 -2 10 -4z m2240 -70 c0 -11 -19 -15 -25 -6 -3 5 1 10 9 10 9
0 16 -2 16 -4z m3695 -126 c-3 -5 -10 -10 -16 -10 -5 0 -9 5 -9 10 0 6 7 10
16 10 8 0 12 -4 9 -10z m-5205 -25 c0 -8 -7 -15 -15 -15 -8 0 -15 7 -15 15 0
8 7 15 15 15 8 0 15 -7 15 -15z m1595 -85 c-3 -5 -13 -10 -21 -10 -8 0 -12 5
-9 10 3 6 13 10 21 10 8 0 12 -4 9 -10z m3503 -49 c3 -8 -1 -12 -9 -9 -7 2
-15 10 -17 17 -3 8 1 12 9 9 7 -2 15 -10 17 -17z m270 -822 c-2 -6 -8 -10 -13
-10 -5 0 -11 4 -13 10 -2 6 4 11 13 11 9 0 15 -5 13 -11z m-5638 -19 c0 -5 -2
-10 -4 -10 -3 0 -8 5 -11 10 -3 6 -1 10 4 10 6 0 11 -4 11 -10z m2290 -486 c0
-8 -4 -12 -10 -9 -5 3 -10 10 -10 16 0 5 5 9 10 9 6 0 10 -7 10 -16z m488 -73
c3 -8 -1 -12 -9 -9 -7 2 -15 10 -17 17 -3 8 1 12 9 9 7 -2 15 -10 17 -17z
m-4233 -51 c3 -5 -3 -10 -15 -10 -12 0 -18 5 -15 10 3 6 10 10 15 10 5 0 12
-4 15 -10z m8085 -30 c0 -5 -7 -10 -15 -10 -8 0 -15 5 -15 10 0 6 7 10 15 10
8 0 15 -4 15 -10z m-180 -20 c0 -5 -4 -10 -9 -10 -6 0 -13 5 -16 10 -3 6 1 10
9 10 9 0 16 -4 16 -10z m-7855 -90 c-3 -5 -10 -10 -16 -10 -5 0 -9 5 -9 10 0
6 7 10 16 10 8 0 12 -4 9 -10z m4063 -11 c-2 -6 -8 -10 -13 -10 -5 0 -11 4
-13 10 -2 6 4 11 13 11 9 0 15 -5 13 -11z m297 -49 c3 -5 -1 -10 -10 -10 -9 0
-13 5 -10 10 3 6 8 10 10 10 2 0 7 -4 10 -10z m2277 -102 c-6 -6 -16 -7 -22
-3 -9 6 -9 9 1 16 17 10 34 0 21 -13z m628 -48 c0 -5 -4 -10 -10 -10 -5 0 -10
5 -10 10 0 6 5 10 10 10 6 0 10 -4 10 -10z m-7310 -46 c0 -8 -5 -12 -10 -9 -6
4 -8 11 -5 16 9 14 15 11 15 -7z m7080 -374 c0 -5 -7 -10 -15 -10 -8 0 -15 5
-15 10 0 6 7 10 15 10 8 0 15 -4 15 -10z m-335 -70 c3 -5 -1 -10 -9 -10 -9 0
-16 5 -16 10 0 6 4 10 9 10 6 0 13 -4 16 -10z m-2050 -271 c10 -15 -1 -23 -20
-15 -9 3 -13 10 -10 16 8 13 22 13 30 -1z m-1364 -22 c-1 -12 -15 -9 -19 4 -3
6 1 10 8 8 6 -3 11 -8 11 -12z m909 -167 c0 -5 -7 -10 -15 -10 -8 0 -15 5 -15
10 0 6 7 10 15 10 8 0 15 -4 15 -10z m1970 -50 c0 -5 -4 -10 -10 -10 -5 0 -10
5 -10 10 0 6 5 10 10 10 6 0 10 -4 10 -10z m-6490 -100 c0 -5 -4 -10 -9 -10
-6 0 -13 5 -16 10 -3 6 1 10 9 10 9 0 16 -4 16 -10z m5530 -590 c0 -5 -7 -10
-15 -10 -8 0 -15 5 -15 10 0 6 7 10 15 10 8 0 15 -4 15 -10z m-1990 -100 c0
-5 -4 -10 -10 -10 -5 0 -10 5 -10 10 0 6 5 10 10 10 6 0 10 -4 10 -10z m-2990
-270 c0 -5 -7 -10 -16 -10 -8 0 -12 5 -9 10 3 6 10 10 16 10 5 0 9 -4 9 -10z
m250 0 c0 -5 -4 -10 -10 -10 -5 0 -10 5 -10 10 0 6 5 10 10 10 6 0 10 -4 10
-10z m6470 -130 c0 -5 -6 -10 -14 -10 -8 0 -18 5 -21 10 -3 6 3 10 14 10 12 0
21 -4 21 -10z m-2032 -94 c3 -12 -1 -17 -10 -14 -7 3 -15 13 -16 22 -3 12 1
17 10 14 7 -3 15 -13 16 -22z m-1385 -151 c-4 -15 -36 -12 -41 3 -3 9 3 13 19
10 13 -1 23 -7 22 -13z m-3836 -231 c-3 -3 -12 -4 -19 -1 -8 3 -5 6 6 6 11 1
17 -2 13 -5z m583 -114 c0 -5 -4 -10 -10 -10 -5 0 -10 5 -10 10 0 6 5 10 10
10 6 0 10 -4 10 -10z m4340 -294 c0 -11 -19 -15 -25 -6 -3 5 1 10 9 10 9 0 16
-2 16 -4z m-453 -53 c-3 -10 -5 -2 -5 17 0 19 2 27 5 18 2 -10 2 -26 0 -35z
m3083 17 c0 -5 -4 -10 -10 -10 -5 0 -10 5 -10 10 0 6 5 10 10 10 6 0 10 -4 10
-10z m-3529 -285 c14 -30 22 -60 18 -66 -9 -15 -15 -4 -39 66 -24 71 -12 71
21 0z m2574 -15 c3 -6 -1 -13 -10 -16 -19 -8 -30 0 -20 15 8 14 22 14 30 1z
m-2155 -50 c0 -5 -7 -10 -15 -10 -8 0 -15 5 -15 10 0 6 7 10 15 10 8 0 15 -4
15 -10z m2125 -1 c10 -15 -1 -23 -20 -15 -9 3 -13 10 -10 16 8 13 22 13 30 -1z
m-2481 -107 c15 -3 17 -10 12 -38 -5 -25 0 -46 19 -83 14 -28 35 -76 46 -107
24 -64 71 -120 144 -173 78 -57 89 -61 225 -76 30 -3 66 -13 80 -21 15 -9 17
-13 6 -10 -54 17 -106 27 -122 24 -11 -2 14 -12 54 -22 80 -19 113 -16 92 9
-7 8 -9 15 -5 15 5 0 0 9 -10 20 -10 11 -16 23 -13 26 4 3 20 -15 38 -40 17
-25 36 -46 43 -47 7 0 3 -4 -8 -9 -19 -8 -19 -9 3 -9 12 -1 48 -21 80 -46 69
-54 102 -59 102 -15 0 37 6 38 32 5 15 -19 26 -24 42 -19 28 9 29 9 21 34 -4
12 -23 27 -45 36 -39 16 -89 79 -105 132 -3 12 -11 22 -16 22 -5 0 -9 5 -9 10
0 6 5 10 10 10 14 0 112 -92 105 -98 -3 -3 -11 0 -17 6 -19 19 -30 14 -18 -8
13 -24 62 -51 104 -57 17 -2 76 -6 131 -9 151 -7 159 -8 175 -19 27 -17 41
-15 30 5 -15 28 -12 49 4 28 22 -29 39 -22 33 12 -4 17 -3 30 2 30 5 0 11 -21
15 -47 7 -49 38 -99 55 -89 5 3 14 -1 21 -9 7 -8 21 -15 32 -15 16 0 19 -5 13
-29 -4 -20 0 -42 14 -69 21 -41 29 -119 19 -182 -3 -19 -2 -58 2 -87 11 -63
-5 -173 -30 -223 -24 -45 -157 -173 -240 -231 -57 -40 -126 -73 -225 -107 -16
-6 -64 -16 -105 -22 -41 -6 -131 -24 -200 -40 -168 -38 -245 -49 -372 -54 -59
-2 -110 -6 -115 -9 -16 -10 -52 13 -67 42 -21 39 -4 49 27 15 l24 -26 17 33
c9 18 19 56 22 85 6 50 5 53 -15 51 -11 -1 -21 -6 -21 -13 0 -13 -86 -28 -103
-17 -6 4 -8 -2 -5 -15 4 -15 2 -19 -8 -15 -12 4 -14 -9 -12 -68 3 -73 3 -74
-22 -74 -23 0 -25 3 -23 48 2 26 -2 47 -7 47 -6 0 -10 6 -10 14 0 22 -51 58
-73 52 -11 -3 -29 1 -41 9 -28 18 -78 23 -83 8 -2 -6 4 -19 14 -30 11 -10 27
-31 37 -46 14 -23 20 -26 32 -16 19 16 22 12 29 -47 6 -44 5 -52 -11 -58 -19
-7 -33 6 -81 79 -27 41 -40 36 -29 -10 4 -16 14 -25 25 -25 20 0 35 -25 25
-41 -7 -13 -164 -12 -164 1 0 6 -15 8 -38 4 -28 -4 -41 -2 -51 10 -7 9 -17 14
-21 11 -5 -3 -32 4 -62 16 -56 23 -84 24 -298 16 -58 -3 -118 -10 -133 -16
-56 -22 -138 -13 -231 24 -48 19 -94 35 -102 35 -49 0 -252 127 -292 182 -7
10 -19 18 -25 18 -7 1 -23 23 -36 49 -23 48 -31 135 -16 182 8 25 -3 24 -26
-3 -18 -22 -18 -22 -19 -3 0 11 9 35 20 53 11 17 17 32 14 32 -4 0 -1 7 6 15
9 11 11 35 6 84 l-7 70 37 41 c44 48 122 105 132 95 4 -3 0 -10 -8 -15 -8 -5
-24 -16 -35 -24 -17 -13 -18 -15 -3 -16 9 0 20 5 23 10 3 6 11 10 18 10 6 0
-4 -16 -23 -35 -18 -19 -31 -37 -28 -41 9 -9 44 13 66 41 l20 25 5 -22 c7 -26
12 -23 21 16 6 23 4 27 -8 23 -9 -4 -16 -2 -16 3 0 6 5 10 10 10 6 0 10 11 10
25 0 28 -9 31 -29 13 -11 -11 -12 -10 -6 2 4 8 15 23 23 32 9 11 12 27 8 42
-8 31 11 44 28 20 12 -16 16 -15 57 17 24 18 59 47 76 63 18 16 35 27 38 25 5
-6 -103 -116 -128 -131 -9 -5 -17 -15 -17 -21 0 -7 -5 -18 -11 -24 -7 -7 -14
-35 -16 -62 -3 -41 -1 -51 11 -51 9 0 16 3 16 8 0 4 18 7 40 7 33 0 38 -2 25
-11 -8 -6 -15 -16 -15 -22 0 -6 -5 -12 -11 -14 -9 -3 -9 -10 0 -26 13 -25 47
-31 37 -6 -3 8 -2 12 3 9 6 -3 7 -21 4 -40 -3 -19 -2 -35 3 -35 20 1 57 39 74
76 l19 39 -6 -47 c-4 -33 -2 -48 6 -48 6 0 11 5 11 10 0 6 8 10 17 8 12 -2 19
6 23 27 l6 30 7 -27 c11 -41 30 -55 71 -50 l36 4 1 57 0 56 23 -60 c26 -67 55
-84 77 -44 10 20 12 20 21 6 13 -24 55 -22 63 3 4 12 2 27 -4 34 -7 8 -8 22
-3 35 l8 22 11 -23 c6 -13 16 -36 21 -53 10 -35 40 -45 59 -19 10 13 16 15 24
7 13 -13 4 -33 -14 -33 -7 0 -17 -11 -24 -25 -10 -22 -9 -25 9 -25 11 0 34 15
52 33 17 17 40 37 51 43 16 10 20 21 18 59 -3 40 0 46 15 43 12 -2 16 -11 14
-29 -2 -15 5 -32 18 -44 19 -18 21 -18 40 0 16 14 23 16 32 7 9 -9 7 -12 -8
-12 -10 0 -30 -9 -44 -20 -14 -11 -35 -20 -47 -20 -14 0 -24 -9 -32 -30 -9
-27 -8 -30 12 -30 12 0 37 9 55 20 18 11 39 20 47 20 8 0 19 9 25 20 14 27 24
25 38 -5 7 -14 20 -25 31 -25 10 0 24 -7 31 -15 9 -11 16 -13 23 -6 6 6 9 12
6 14 -2 1 -23 20 -47 40 -24 21 -47 35 -52 32 -6 -4 -13 2 -17 12 -4 10 -16
26 -28 35 -20 17 -20 17 13 48 24 23 32 40 32 65 0 25 4 33 14 29 9 -3 13 -24
14 -62 1 -77 23 -126 72 -157 22 -14 46 -25 54 -25 9 0 20 -9 26 -20 13 -24
33 -26 50 -5 10 12 10 18 1 29 -10 11 -9 22 4 47 10 19 15 43 11 60 -3 16 0
41 6 57 l11 27 10 -27 c7 -18 18 -28 31 -28 19 0 19 -1 -4 -13 -22 -11 -24
-17 -21 -66 1 -30 7 -65 12 -78 8 -22 33 -31 42 -15 2 4 3 2 1 -4 -1 -7 11
-14 28 -16 24 -4 34 1 51 24 21 28 50 37 62 18 3 -5 20 -10 37 -10 22 0 29 4
25 15 -4 8 -2 17 3 20 6 4 10 -1 10 -10 0 -8 7 -18 15 -22 9 -3 27 -26 40 -52
l23 -46 11 27 c18 48 51 47 77 -4 22 -43 12 -62 -29 -54 -36 7 -118 -13 -124
-30 -2 -6 10 -14 26 -17 16 -4 43 -19 60 -34 52 -48 60 -53 86 -53 20 0 30 8
41 33 l14 32 -2 -42 c-1 -23 0 -44 2 -46 3 -2 24 -7 47 -11 l41 -6 22 73 c27
90 42 127 54 127 5 0 6 17 2 38 -4 20 -8 56 -11 80 -2 24 -7 57 -10 75 -4 18
-5 29 -1 26 3 -3 11 -32 17 -65 15 -84 18 -92 39 -99 10 -3 21 -17 24 -30 11
-44 26 -27 28 33 2 81 2 82 -6 135 -6 38 -4 47 7 47 11 0 18 -20 26 -67 15
-88 39 -150 60 -155 23 -7 77 17 61 27 -10 6 -10 9 0 15 12 7 17 50 19 157 1
32 4 41 15 37 21 -8 28 12 17 51 -18 67 -81 93 -145 60 -15 -8 -54 -15 -85
-15 -37 0 -65 -6 -80 -17 -17 -12 -47 -17 -100 -17 -54 -1 -83 -6 -101 -18
-37 -25 -51 -10 -55 61 -3 47 -1 63 10 67 12 5 10 13 -9 48 -17 29 -29 76 -41
160 -15 112 -28 159 -61 231 -7 17 -29 65 -48 108 -19 42 -44 89 -55 104 -12
14 -21 31 -21 37 0 6 5 3 11 -6 16 -28 30 -22 19 8 -6 14 -10 35 -9 47 0 17 4
13 13 -13 7 -19 21 -37 30 -38z m-3619 48 c-3 -5 -10 -10 -16 -10 -5 0 -9 5
-9 10 0 6 7 10 16 10 8 0 12 -4 9 -10z m1295 -140 c0 -5 -4 -10 -10 -10 -5 0
-10 5 -10 10 0 6 5 10 10 10 6 0 10 -4 10 -10z m-1689 -63 c-1 -12 -15 -9 -19
4 -3 6 1 10 8 8 6 -3 11 -8 11 -12z m3431 -70 c49 -47 61 -70 18 -33 -44 39
-69 76 -69 106 0 8 6 0 14 -18 8 -17 24 -42 37 -55z m-812 18 c0 -8 -7 -15
-15 -15 -8 0 -15 7 -15 15 0 8 7 15 15 15 8 0 15 -7 15 -15z m-1190 -15 c0 -5
-4 -10 -10 -10 -5 0 -10 5 -10 10 0 6 5 10 10 10 6 0 10 -4 10 -10z m1833
-111 c-5 -5 -24 -11 -42 -11 -35 -1 -38 -8 -14 -46 l16 -27 -26 29 c-37 40
-34 54 11 59 20 2 44 4 52 5 10 2 11 -1 3 -9z m-413 -64 c-7 -9 -15 -13 -17
-11 -7 7 7 26 19 26 6 0 6 -6 -2 -15z m2300 -17 c0 -6 3 -8 7 -5 3 4 19 -12
34 -35 35 -53 27 -65 -12 -18 -40 47 -53 70 -39 70 5 0 10 -5 10 -12z m1945
-18 c3 -5 1 -10 -4 -10 -6 0 -11 5 -11 10 0 6 2 10 4 10 3 0 8 -4 11 -10z
m-3805 -35 c20 -24 6 -28 -15 -5 -10 11 -13 20 -8 20 6 0 16 -7 23 -15z m1225
5 c3 -6 -1 -7 -9 -4 -18 7 -21 14 -7 14 6 0 13 -4 16 -10z m-1550 -90 c-3 -5
-10 -10 -16 -10 -5 0 -9 5 -9 10 0 6 7 10 16 10 8 0 12 -4 9 -10z m-2175 -45
c0 -8 -7 -15 -15 -15 -16 0 -20 12 -8 23 11 12 23 8 23 -8z m750 -35 c0 -5 -4
-10 -10 -10 -5 0 -10 5 -10 10 0 6 5 10 10 10 6 0 10 -4 10 -10z m1948 -25
c-5 -24 19 -56 52 -68 8 -3 3 -6 -12 -6 -16 -1 -28 4 -28 10 0 7 -6 17 -14 23
-14 10 -12 66 1 66 3 0 3 -11 1 -25z m594 -37 c-9 -9 -15 -9 -24 0 -9 9 -7 12
12 12 19 0 21 -3 12 -12z m4138 -33 c0 -8 -7 -15 -15 -15 -8 0 -15 7 -15 15 0
8 7 15 15 15 8 0 15 -7 15 -15z m-4644 -42 c-7 -7 -26 7 -26 19 0 6 6 6 15 -2
9 -7 13 -15 11 -17z m466 -65 c-6 -6 -19 -7 -31 -3 -17 5 -19 12 -15 38 11 61
16 64 36 18 13 -28 16 -47 10 -53z m3083 71 c10 -15 -1 -23 -20 -15 -9 3 -13
10 -10 16 8 13 22 13 30 -1z m-3245 -75 c0 -1 -12 -4 -26 -7 -22 -4 -25 -2
-20 17 3 11 6 32 6 46 1 22 3 20 20 -14 11 -22 20 -40 20 -42z m250 41 c10
-13 9 -15 -8 -15 -15 0 -20 5 -16 15 4 8 7 15 9 15 1 0 8 -7 15 -15z m-1310
-15 c0 -5 -5 -10 -11 -10 -5 0 -7 5 -4 10 3 6 8 10 11 10 2 0 4 -4 4 -10z
m1140 -10 c0 -5 -2 -10 -4 -10 -3 0 -8 5 -11 10 -3 6 -1 10 4 10 6 0 11 -4 11
-10z m747 -12 c-3 -8 -6 -5 -6 6 -1 11 2 17 5 13 3 -3 4 -12 1 -19z m1093 2
c0 -5 -7 -10 -15 -10 -8 0 -15 5 -15 10 0 6 7 10 15 10 8 0 15 -4 15 -10z
m-2175 -46 c19 -29 9 -44 -29 -44 -14 0 -16 3 -8 13 6 7 9 23 5 35 -7 30 11
28 32 -4z m75 12 c0 -3 -4 -8 -10 -11 -5 -3 -10 -1 -10 4 0 6 5 11 10 11 6 0
10 -2 10 -4z m954 -92 c4 -97 -11 -154 -25 -100 -5 16 -5 34 -1 40 4 6 7 20 8
31 0 11 1 44 2 74 3 82 12 55 16 -45z m-368 2 c-3 -11 1 -31 8 -45 8 -14 21
-50 29 -80 16 -52 15 -55 -6 -80 l-21 -26 -28 29 c-21 22 -26 34 -21 50 5 12
7 56 7 98 -2 70 0 76 18 75 14 -1 18 -7 14 -21z m124 -151 c15 -18 6 -45 -15
-45 -18 0 -30 24 -21 45 7 19 20 19 36 0z m-2133 -147 c-3 -7 -5 -2 -5 12 0
14 2 19 5 13 2 -7 2 -19 0 -25z m-2397 -138 c0 -5 -4 -10 -9 -10 -6 0 -13 5
-16 10 -3 6 1 10 9 10 9 0 16 -4 16 -10z m-183 -376 c-9 -9 -28 6 -21 18 4 6
10 6 17 -1 6 -6 8 -13 4 -17z m6293 -18 c0 -3 -4 -8 -10 -11 -5 -3 -10 -1 -10
4 0 6 5 11 10 11 6 0 10 -2 10 -4z m-6045 -116 c3 -5 -1 -10 -9 -10 -9 0 -16
5 -16 10 0 6 4 10 9 10 6 0 13 -4 16 -10z m7865 0 c0 -5 -7 -10 -15 -10 -8 0
-15 5 -15 10 0 6 7 10 15 10 8 0 15 -4 15 -10z m-4930 -40 c0 -5 -4 -10 -10
-10 -5 0 -10 5 -10 10 0 6 5 10 10 10 6 0 10 -4 10 -10z m3525 -60 c-3 -5 -10
-10 -16 -10 -5 0 -9 5 -9 10 0 6 7 10 16 10 8 0 12 -4 9 -10z m-2478 -186 c-3
-3 -12 -4 -19 -1 -8 3 -5 6 6 6 11 1 17 -2 13 -5z m-2632 -24 c3 -5 -1 -10
-10 -10 -9 0 -13 5 -10 10 3 6 8 10 10 10 2 0 7 -4 10 -10z m-445 -34 c0 -3
-4 -8 -10 -11 -5 -3 -10 -1 -10 4 0 6 5 11 10 11 6 0 10 -2 10 -4z m70 -36 c0
-5 -4 -10 -10 -10 -5 0 -10 5 -10 10 0 6 5 10 10 10 6 0 10 -4 10 -10z m6290
-140 c0 -5 -7 -10 -15 -10 -8 0 -15 5 -15 10 0 6 7 10 15 10 8 0 15 -4 15 -10z
m480 -44 c0 -11 -19 -15 -25 -6 -3 5 1 10 9 10 9 0 16 -2 16 -4z m-2796 -117
c-3 -5 -10 -7 -15 -3 -5 3 -7 10 -3 15 3 5 10 7 15 3 5 -3 7 -10 3 -15z m1416
-9 c0 -5 -7 -10 -15 -10 -8 0 -15 5 -15 10 0 6 7 10 15 10 8 0 15 -4 15 -10z
m-3330 -170 c0 -5 -5 -10 -11 -10 -5 0 -7 5 -4 10 3 6 8 10 11 10 2 0 4 -4 4
-10z m1217 -146 c-3 -3 -12 -4 -19 -1 -8 3 -5 6 6 6 11 1 17 -2 13 -5z m-1117
-129 c-7 -8 -16 -12 -21 -9 -13 8 -1 24 18 24 13 0 13 -3 3 -15z m3310 -159
c0 -2 -7 -6 -15 -10 -8 -3 -15 -1 -15 4 0 6 7 10 15 10 8 0 15 -2 15 -4z
m-155 -16 c3 -5 -3 -10 -15 -10 -12 0 -18 5 -15 10 3 6 10 10 15 10 5 0 12 -4
15 -10z m-4095 -14 c0 -11 -19 -15 -25 -6 -3 5 1 10 9 10 9 0 16 -2 16 -4z
m1190 -46 c0 -5 -7 -10 -15 -10 -8 0 -15 5 -15 10 0 6 7 10 15 10 8 0 15 -4
15 -10z m4480 -364 c0 -3 -4 -8 -10 -11 -5 -3 -10 -1 -10 4 0 6 5 11 10 11 6
0 10 -2 10 -4z m-3175 -46 c3 -5 -1 -10 -9 -10 -9 0 -16 5 -16 10 0 6 4 10 9
10 6 0 13 -4 16 -10z m3350 -150 c-3 -5 -10 -10 -16 -10 -5 0 -9 5 -9 10 0 6
7 10 16 10 8 0 12 -4 9 -10z m-1055 -136 c0 -8 -4 -12 -10 -9 -5 3 -10 10 -10
16 0 5 5 9 10 9 6 0 10 -7 10 -16z m-535 -114 c3 -5 -1 -10 -9 -10 -9 0 -16 5
-16 10 0 6 4 10 9 10 6 0 13 -4 16 -10z m-2168 -46 c-3 -3 -12 -4 -19 -1 -8 3
-5 6 6 6 11 1 17 -2 13 -5z m1683 -168 c0 -11 -19 -15 -25 -6 -3 5 1 10 9 10
9 0 16 -2 16 -4z m-1820 -346 c0 -5 -7 -10 -15 -10 -8 0 -15 5 -15 10 0 6 7
10 15 10 8 0 15 -4 15 -10z m-4345 -100 c3 -6 -1 -7 -9 -4 -18 7 -21 14 -7 14
6 0 13 -4 16 -10z m7545 -64 c0 -11 -19 -15 -25 -6 -3 5 1 10 9 10 9 0 16 -2
16 -4z m-4723 -72 c-3 -3 -12 -4 -19 -1 -8 3 -5 6 6 6 11 1 17 -2 13 -5z
m1618 -124 c3 -5 1 -10 -4 -10 -6 0 -11 5 -11 10 0 6 2 10 4 10 3 0 8 -4 11
-10z m4030 -20 c-3 -5 -10 -10 -16 -10 -5 0 -9 5 -9 10 0 6 7 10 16 10 8 0 12
-4 9 -10z m-2105 -66 c0 -8 -4 -12 -10 -9 -5 3 -10 10 -10 16 0 5 5 9 10 9 6
0 10 -7 10 -16z m-6650 -24 c0 -14 -15 -19 -29 -10 -17 10 -5 31 14 23 8 -3
15 -9 15 -13z m460 -60 c0 -5 -4 -10 -10 -10 -5 0 -10 5 -10 10 0 6 5 10 10
10 6 0 10 -4 10 -10z m456 -315 c18 -15 18 -15 -5 -13 -14 2 -26 9 -29 16 -5
17 10 15 34 -3z m564 -139 c0 -3 -4 -8 -10 -11 -5 -3 -10 -1 -10 4 0 6 5 11
10 11 6 0 10 -2 10 -4z"/>
<path d="M4800 5393 c0 -5 6 -18 14 -28 7 -10 11 -26 9 -36 -9 -31 28 -213 48
-241 13 -19 18 -40 16 -65 -4 -41 24 -113 31 -80 4 19 13 22 28 7 7 -7 28 -8
52 -4 46 7 45 4 43 114 l-1 45 15 -45 c22 -68 36 -90 60 -90 27 0 45 18 45 44
0 20 2 19 20 -4 l20 -25 0 27 c0 14 3 33 6 41 3 10 -2 18 -15 22 -12 3 -27 21
-35 39 -7 18 -35 50 -60 71 -38 31 -57 39 -99 43 -46 3 -58 0 -97 -28 l-45
-31 39 35 c26 24 50 36 75 38 36 3 36 3 -21 21 -31 9 -60 22 -64 28 -4 7 1 7
16 -1 39 -21 29 -6 -36 53 -35 32 -64 55 -64 50z"/>
<path d="M5091 5202 c35 -23 57 -47 73 -77 7 -14 33 -36 57 -48 27 -15 46 -32
50 -48 5 -21 7 -22 14 -7 8 19 1 135 -8 145 -6 6 -185 53 -202 53 -5 0 2 -8
16 -18z"/>
<path d="M5602 5133 c30 -29 44 -27 33 6 -4 14 -15 21 -33 21 l-27 0 27 -27z"/>
<path d="M5690 5142 c0 -25 19 -42 47 -42 16 0 23 6 23 20 0 11 5 20 10 20 6
0 10 5 10 10 0 6 -20 10 -45 10 -37 0 -45 -3 -45 -18z"/>
<path d="M5311 5143 c0 -4 14 -19 31 -32 29 -24 30 -24 19 -3 -12 22 -51 49
-50 35z"/>
<path d="M5820 5137 c0 -7 9 -18 20 -25 18 -11 20 -10 20 13 0 18 -5 25 -20
25 -11 0 -20 -6 -20 -13z"/>
<path d="M5900 5129 c0 -12 29 -38 43 -39 15 0 6 30 -12 40 -25 13 -31 13 -31
-1z"/>
<path d="M5317 5099 c7 -7 15 -10 18 -7 3 3 -2 9 -12 12 -14 6 -15 5 -6 -5z"/>
<path d="M5340 5061 c0 -6 4 -13 10 -16 6 -3 7 1 4 9 -7 18 -14 21 -14 7z"/>
<path d="M5587 5060 c-62 -4 -71 -8 -93 -35 -29 -37 -31 -62 -4 -70 11 -3 20
-14 20 -23 1 -13 4 -12 13 6 13 22 13 22 25 -10 6 -18 25 -49 42 -68 37 -43
39 -58 5 -36 -14 9 -29 15 -33 12 -5 -3 -16 8 -26 25 -9 16 -21 29 -27 29 -5
0 -9 8 -9 18 0 21 -30 52 -50 52 -10 0 -11 -15 -7 -67 4 -38 7 -80 7 -95 0
-16 5 -28 11 -28 5 0 7 5 4 10 -11 18 22 10 40 -10 19 -21 45 -27 45 -10 0 21
31 9 40 -15 10 -27 26 -33 33 -12 3 9 7 9 20 -2 26 -21 25 -12 -19 132 -14 46
-15 60 -5 70 10 9 15 8 27 -7 8 -11 14 -27 14 -37 0 -9 7 -33 15 -52 12 -29
22 -37 51 -43 19 -3 38 -13 41 -20 3 -8 10 -14 15 -14 13 0 1 92 -18 136 -17
42 -17 44 1 44 22 0 57 -122 49 -176 -6 -43 7 -61 20 -28 9 24 7 130 -3 158
-7 18 -6 28 4 36 12 10 18 6 32 -19 24 -42 33 -39 33 12 -1 53 -42 117 -85
130 -35 11 -132 14 -228 7z"/>
<path d="M5936 4972 c-3 -5 2 -19 11 -31 11 -17 18 -20 23 -10 5 7 3 20 -3 31
-13 20 -23 23 -31 10z"/>
<path d="M5892 4800 c2 -32 7 -53 13 -50 14 7 11 78 -4 93 -10 9 -11 0 -9 -43z"/>
<path d="M3260 4815 c-8 -9 -8 -15 -2 -15 12 0 26 19 19 26 -2 2 -10 -2 -17
-11z"/>
<path d="M3281 4796 c-9 -11 -8 -15 5 -20 23 -9 24 -8 24 14 0 23 -13 26 -29
6z"/>
<path d="M5722 4741 c4 -13 18 -16 19 -4 0 4 -5 9 -11 12 -7 2 -11 -2 -8 -8z"/>
<path d="M3767 4710 c8 -29 31 -37 51 -17 19 20 15 25 -26 33 -28 6 -30 4 -25
-16z"/>
<path d="M3560 4710 c-10 -6 -12 -12 -4 -20 7 -7 16 -5 29 10 14 15 15 20 4
20 -8 0 -21 -5 -29 -10z"/>
<path d="M3640 4680 c0 -13 20 -13 40 0 12 8 9 10 -12 10 -16 0 -28 -4 -28
-10z"/>
<path d="M5932 4660 c-24 -39 -27 -50 -12 -50 13 0 42 58 37 73 -2 7 -14 -4
-25 -23z"/>
<path d="M3396 4662 c-3 -3 -6 -14 -6 -24 0 -19 -15 -24 -25 -8 -13 21 -25 9
-25 -24 0 -26 -5 -35 -20 -39 -20 -5 -21 -10 -15 -84 5 -56 4 -74 -4 -63 -9
12 -11 11 -11 -7 0 -12 5 -25 10 -28 6 -3 10 -1 10 6 0 7 17 -5 38 -27 20 -22
53 -51 72 -66 19 -14 32 -29 29 -32 -4 -4 -21 6 -39 21 -18 15 -48 41 -66 57
-44 36 -43 28 1 -20 19 -22 45 -53 57 -71 13 -18 32 -37 43 -43 11 -6 38 -24
60 -40 47 -35 55 -36 55 -11 0 11 -16 33 -36 49 -20 17 -31 33 -26 36 7 4 6
16 -4 34 -7 15 -14 34 -14 43 0 9 -11 24 -25 33 -30 20 -35 42 -6 26 29 -15
31 -13 31 23 0 18 8 49 19 69 33 65 34 93 3 129 l-26 32 27 -5 c33 -6 35 5 5
20 -27 12 -104 23 -112 14z m-8 -85 c7 -18 12 -51 12 -73 1 -21 7 -50 15 -64
8 -14 14 -29 14 -35 0 -29 -34 60 -49 127 -17 80 -13 103 8 45z m57 -17 c17
-33 10 -40 -11 -12 -13 17 -19 42 -9 42 2 0 11 -13 20 -30z"/>
<path d="M5840 4645 c-21 -54 -23 -75 -8 -75 24 0 48 34 48 68 0 40 -26 44
-40 7z"/>
<path d="M3200 4635 c0 -8 -4 -15 -10 -15 -5 0 -10 -5 -10 -11 0 -6 10 -9 23
-7 26 4 38 48 13 48 -9 0 -16 -7 -16 -15z"/>
<path d="M3867 4638 c-7 -4 -31 -8 -54 -8 l-43 0 0 -46 c0 -41 -1 -44 -16 -30
-8 9 -20 16 -26 16 -7 0 -1 12 13 26 l24 26 -35 -4 c-25 -2 -34 -7 -31 -18 2
-8 7 -35 12 -60 13 -78 76 -196 95 -178 3 3 8 23 11 44 3 22 14 57 24 78 11
22 19 45 19 51 0 9 60 39 66 32 1 -1 -6 -26 -16 -55 -13 -38 -16 -60 -10 -75
13 -30 32 -52 53 -60 9 -3 17 -13 17 -22 0 -8 5 -15 10 -15 6 0 10 6 10 13 0
7 16 35 35 64 19 28 40 69 47 90 10 34 15 39 35 35 23 -4 23 -7 17 -64 -6 -54
-5 -60 14 -65 12 -3 18 -11 16 -18 -3 -7 0 -16 6 -20 13 -8 50 22 50 40 0 7 7
15 15 19 24 9 17 26 -10 26 -14 0 -28 -7 -31 -15 -4 -8 -10 -15 -15 -15 -19 0
-8 22 26 51 19 17 35 37 35 44 0 8 15 24 33 36 17 12 34 24 36 25 5 5 -22 30
-47 43 -13 7 -46 12 -75 12 -29 0 -107 1 -175 2 -68 1 -129 -1 -135 -5z m0
-44 c-9 -9 -28 6 -21 18 4 6 10 6 17 -1 6 -6 8 -13 4 -17z"/>
<path d="M3126 4633 c-9 -9 -7 -33 3 -33 12 0 22 28 12 34 -5 3 -11 3 -15 -1z"/>
<path d="M3573 4617 c9 -7 9 -10 0 -14 -9 -3 -10 -10 -3 -23 27 -50 33 -149 9
-134 -5 3 -7 9 -4 14 3 4 -2 13 -9 20 -20 16 -43 -29 -49 -94 -3 -39 0 -53 15
-68 11 -11 24 -18 30 -16 17 6 38 79 27 99 -13 25 -11 30 9 27 13 -2 18 5 20
30 2 17 7 32 12 32 16 0 42 49 50 91 7 35 5 40 -14 44 -35 7 -106 1 -93 -8z"/>
<path d="M4478 4613 c-1 -4 -3 -28 -3 -53 0 -33 4 -45 14 -45 20 0 26 79 7 94
-8 7 -16 8 -18 4z"/>
<path d="M4522 4573 c11 -55 33 -79 55 -61 8 7 37 11 64 11 54 -1 62 8 24 25
-14 6 -25 8 -25 3 0 -5 -15 5 -32 21 -30 28 -67 48 -87 48 -5 0 -4 -21 1 -47z"/>
<path d="M4685 4590 c-3 -5 1 -10 9 -10 9 0 16 5 16 10 0 6 -4 10 -9 10 -6 0
-13 -4 -16 -10z"/>
<path d="M3238 4561 c-20 -20 -28 -38 -28 -64 0 -20 3 -37 8 -37 16 0 58 85
53 107 -6 21 -6 21 -33 -6z"/>
<path d="M5439 4572 c-14 -9 -27 -21 -27 -25 -2 -16 -65 -143 -80 -159 -11
-13 -11 -18 -3 -18 23 0 71 34 77 55 4 11 14 29 24 40 23 27 36 53 43 93 7 36
3 38 -34 14z"/>
<path d="M5874 4568 c-28 -33 -47 -72 -42 -93 2 -14 6 -12 18 11 8 16 23 38
33 48 14 17 24 56 14 56 -2 0 -12 -10 -23 -22z"/>
<path d="M5296 4550 c-26 -32 -34 -74 -16 -85 5 -3 21 17 35 46 32 62 21 86
-19 39z"/>
<path d="M5111 4504 c-24 -75 -15 -113 25 -114 15 0 73 133 74 170 0 3 -18 6
-40 7 l-40 2 -19 -65z"/>
<path d="M5327 4490 c-22 -43 -37 -86 -35 -96 3 -16 5 -15 19 7 9 14 31 57 47
97 42 99 18 93 -31 -8z"/>
<path d="M4416 4548 c3 -4 1 -8 -5 -8 -7 0 -7 -8 1 -25 17 -37 38 -32 38 9 0
28 -4 34 -19 33 -11 0 -17 -5 -15 -9z"/>
<path d="M5526 4532 c-2 -4 -7 -25 -11 -47 l-7 -40 21 33 c22 34 27 62 12 62
-6 0 -12 -3 -15 -8z"/>
<path d="M3675 4437 c-14 -38 -14 -46 -2 -71 16 -30 53 -60 60 -48 2 4 3 2 1
-5 -1 -6 6 -19 17 -29 20 -18 20 -18 0 -26 -26 -9 -27 -39 -3 -60 12 -11 24
-13 40 -7 27 10 27 16 5 43 -17 20 -17 20 0 7 25 -20 29 -10 16 48 -11 53 -36
80 -57 59 -7 -7 -16 -7 -29 1 -16 9 -15 10 10 11 15 0 27 2 27 5 0 12 -55 115
-61 115 -4 0 -15 -19 -24 -43z"/>
<path d="M3876 4418 c-11 -36 -14 -123 -5 -140 12 -22 45 -19 87 8 21 14 21
16 6 39 -10 16 -26 25 -42 25 -20 0 -23 3 -15 11 9 9 8 19 -3 40 -16 32 -23
35 -28 17z"/>
<path d="M4073 4377 c-22 -32 -29 -57 -17 -57 3 0 21 7 39 16 32 15 33 16 18
45 -8 16 -15 29 -16 29 -1 0 -12 -15 -24 -33z"/>
<path d="M5206 4394 c-8 -22 -8 -24 8 -24 7 0 16 9 19 20 6 24 -18 28 -27 4z"/>
<path d="M3625 4307 c-5 -19 -2 -35 9 -52 18 -28 46 -34 46 -10 0 8 -4 15 -9
15 -4 0 -15 17 -23 38 l-15 37 -8 -28z"/>
<path d="M3692 4295 c12 -27 28 -34 28 -12 0 14 -20 37 -32 37 -4 0 -2 -11 4
-25z"/>
<path d="M3520 4294 c0 -25 28 -71 56 -93 15 -12 29 -20 31 -18 10 11 -41 106
-63 116 -20 9 -24 8 -24 -5z"/>
<path d="M5158 4263 l-57 -4 -35 -73 c-19 -41 -39 -77 -45 -81 -24 -14 -10
-26 21 -20 84 19 188 112 188 170 0 8 -3 14 -7 13 -5 -1 -34 -3 -65 -5z"/>
<path d="M5000 4248 c-19 -5 -44 -10 -55 -11 -22 -2 -32 -29 -34 -94 0 -23 -5
-45 -11 -48 -17 -11 -11 -25 11 -25 16 0 19 4 14 20 -6 17 -3 19 24 14 27 -6
31 -3 45 30 8 20 19 36 25 36 9 0 27 78 19 84 -1 1 -19 -1 -38 -6z"/>
<path d="M5298 4238 c-26 -41 -29 -58 -9 -58 24 0 65 45 58 64 -9 23 -32 20
-49 -6z"/>
<path d="M5381 4206 c-19 -23 4 -28 24 -6 15 17 16 20 3 20 -9 0 -21 -6 -27
-14z"/>
<path d="M4318 4164 c-27 -15 -29 -34 -5 -64 19 -24 67 -51 77 -45 15 9 10 57
-9 89 -20 36 -28 38 -63 20z"/>
<path d="M5258 4143 c7 -3 16 -2 19 1 4 3 -2 6 -13 5 -11 0 -14 -3 -6 -6z"/>
</g>
</svg>
