<?xml version="1.0" standalone="no"?>
<!DOCTYPE svg PUBLIC "-//W3C//DTD SVG 20010904//EN"
 "http://www.w3.org/TR/2001/REC-SVG-20010904/DTD/svg10.dtd">
<svg version="1.0" xmlns="http://www.w3.org/2000/svg"
 width="900.000000pt" height="1350.000000pt" viewBox="0 0 900.000000 1350.000000"
 preserveAspectRatio="xMidYMid meet">

<g transform="translate(0.000000,1350.000000) scale(0.100000,-0.100000)"
fill="#000000" stroke="none">
<path d="M0 6750 l0 -6750 4500 0 4500 0 0 6750 0 6750 -4500 0 -4500 0 0
-6750z m4701 1569 c133 -13 230 -33 339 -70 107 -35 264 -109 339 -157 64 -42
194 -149 200 -166 2 -6 -3 -5 -13 3 -22 18 -33 6 -15 -15 13 -16 12 -17 -8
-12 -12 3 -23 2 -25 -3 -2 -6 -22 -11 -45 -12 -35 -1 -45 3 -63 26 -14 17 -41
33 -76 43 -30 8 -54 20 -54 25 0 5 -11 9 -25 9 -13 0 -48 10 -77 23 -92 41
-151 42 -119 3 9 -10 7 -15 -6 -20 -15 -6 -15 -8 -3 -16 17 -11 8 -23 -23 -27
-31 -5 -46 -23 -19 -23 12 0 22 -5 22 -11 0 -6 -9 -8 -22 -3 -12 3 -50 6 -85
5 -47 -1 -63 2 -63 12 0 21 -30 43 -82 61 -44 14 -51 14 -82 -1 -19 -8 -39
-26 -45 -39 -9 -20 -13 -22 -40 -11 -23 8 -40 7 -81 -6 -29 -9 -62 -17 -75
-17 -25 0 -75 -42 -75 -63 0 -18 -27 -30 -43 -20 -19 12 -47 14 -47 3 0 -6 -7
-10 -15 -10 -11 0 -14 -7 -9 -24 6 -26 -19 -48 -44 -39 -18 7 -72 -17 -72 -31
0 -6 7 -19 15 -30 11 -14 11 -22 2 -37 -14 -23 -37 -7 -37 27 0 15 -6 24 -16
24 -12 0 -15 -6 -10 -22 4 -13 9 -37 13 -55 5 -27 3 -31 -13 -27 -25 5 -78
-69 -69 -97 7 -21 55 -28 55 -8 0 7 11 9 29 6 35 -7 87 6 83 22 -5 27 17 7 33
-29 11 -24 25 -40 35 -40 20 0 32 -23 24 -45 -4 -9 0 -15 9 -15 14 0 34 -35
29 -52 -1 -4 3 -19 8 -32 6 -17 14 -24 25 -20 20 8 19 -8 -4 -37 -10 -13 -24
-41 -31 -61 -20 -54 -58 -61 -110 -19 -42 34 -60 39 -60 17 0 -8 -12 -17 -26
-20 -24 -6 -25 -8 -10 -25 14 -15 14 -20 2 -37 -15 -19 -15 -19 -29 1 -15 19
-16 19 -35 1 -12 -10 -26 -15 -31 -11 -16 9 -13 35 4 41 17 7 21 34 5 34 -6 0
-24 14 -40 30 -35 36 -37 36 -68 8 l-24 -23 -15 23 c-9 12 -22 22 -31 22 -9 0
0 12 21 28 57 43 44 56 -27 27 -36 -15 -45 -28 -26 -40 31 -19 -17 -43 -50
-25 -11 6 -20 15 -20 21 0 5 -9 19 -20 31 -16 18 -22 19 -35 8 -26 -21 -29 -3
-8 42 11 24 21 57 21 74 1 28 -3 33 -30 38 -16 3 -37 2 -47 -3 -21 -12 -25
-50 -5 -58 32 -12 11 -24 -38 -22 -43 3 -54 0 -56 -14 -2 -9 -7 -17 -12 -17
-4 0 -13 -13 -19 -30 -7 -22 -7 -30 1 -30 14 0 58 -40 58 -52 0 -4 -8 -8 -17
-8 -13 0 -14 -3 -5 -12 7 -7 12 -19 12 -27 0 -12 -3 -12 -12 -3 -20 20 -28 14
-28 -19 0 -27 -2 -30 -15 -19 -8 7 -15 18 -14 24 4 31 -3 54 -16 60 -16 6 -15
-15 1 -86 4 -20 2 -29 -8 -33 -10 -4 -13 -15 -10 -31 4 -23 22 -35 22 -14 0 6
6 10 14 10 7 0 16 9 19 20 3 11 10 20 16 20 6 0 19 -9 28 -20 22 -25 33 -26
33 -2 0 10 5 23 12 30 9 9 4 12 -22 12 -48 0 -23 22 27 24 29 1 37 -3 34 -14
-2 -8 -4 -20 -5 -26 -1 -6 -23 -35 -48 -65 -58 -68 -65 -92 -38 -144 24 -47
25 -71 5 -79 -11 -4 -14 -13 -9 -31 5 -19 2 -25 -10 -25 -21 0 -37 32 -25 51
11 18 12 49 0 49 -5 0 -14 -13 -21 -29 -15 -37 -31 -43 -70 -29 -28 9 -33 8
-46 -11 -8 -11 -22 -21 -30 -21 -8 0 -14 -10 -14 -25 0 -16 6 -25 15 -25 8 0
15 -9 15 -20 0 -11 -4 -20 -9 -20 -4 0 -16 -21 -26 -46 -19 -49 -12 -69 21
-62 12 2 29 -9 46 -30 l27 -34 12 26 c7 14 15 26 18 26 12 0 41 -40 41 -56 0
-9 6 -14 13 -12 17 6 17 56 0 98 -10 26 -11 40 -3 60 6 15 10 31 9 36 -5 27 3
32 51 30 40 -2 55 -8 76 -32 21 -22 28 -25 33 -14 3 8 12 25 20 37 14 20 16
20 27 5 11 -14 16 -15 33 -4 25 15 48 16 57 1 10 -17 -54 -78 -77 -72 -11 3
-21 -1 -25 -11 -3 -9 -11 -16 -18 -16 -6 0 -17 -9 -23 -19 -12 -19 -51 -19
-63 0 -3 5 -15 6 -27 3 -24 -6 -35 -52 -20 -79 10 -19 1 -67 -16 -77 -7 -4
-24 -8 -38 -8 -30 0 -72 -40 -64 -62 4 -9 -1 -18 -10 -22 -32 -12 -4 -28 38
-21 l40 7 -6 -31 c-6 -27 -3 -32 17 -37 38 -9 61 -1 64 24 2 15 -2 22 -13 22
-8 0 -30 14 -47 32 l-31 32 22 10 c16 7 25 6 30 -2 4 -7 15 -10 24 -6 13 4 17
1 17 -14 0 -29 17 -36 30 -12 17 31 27 24 35 -26 3 -26 15 -53 26 -62 10 -9
19 -26 19 -37 0 -12 5 -26 12 -33 9 -9 9 -15 0 -24 -15 -15 -16 -38 -2 -38 6
0 10 9 10 20 0 35 27 11 39 -36 11 -44 27 -57 37 -29 7 18 33 19 57 1 21 -16
23 -30 3 -23 -8 3 -20 -1 -28 -10 -11 -14 -10 -16 9 -11 28 7 40 -20 16 -37
-11 -8 -17 -27 -18 -54 -1 -52 -21 -76 -31 -37 -5 23 -11 26 -50 26 -24 0 -44
-2 -44 -4 0 -3 5 -17 10 -31 14 -37 -4 -69 -36 -62 -27 5 -31 -5 -10 -26 8 -8
18 -30 21 -49 6 -30 4 -36 -14 -41 -13 -3 -21 -13 -21 -25 0 -38 -10 -52 -30
-42 -13 7 -20 6 -23 -3 -6 -19 23 -57 39 -50 8 3 14 0 14 -7 0 -6 -13 -17 -30
-23 -24 -9 -30 -17 -30 -41 0 -16 -10 -50 -22 -74 l-21 -45 41 -37 c36 -31 54
-60 37 -60 -25 0 -217 153 -297 236 -110 114 -246 309 -294 422 -134 315 -180
657 -128 947 76 422 258 743 572 1011 328 280 782 418 1223 373z m423 -424
c15 -19 23 -35 17 -35 -19 0 -41 12 -41 23 0 6 -7 19 -17 29 -14 16 -14 18 -1
18 9 0 28 -16 42 -35z m-724 -82 c-1 -5 -11 -21 -25 -37 -18 -23 -27 -27 -37
-19 -13 11 -18 13 -38 13 -16 0 -11 27 6 34 9 4 22 2 29 -4 9 -7 16 -6 25 5
13 15 40 21 40 8z m-180 -162 c0 -6 -4 -13 -10 -16 -5 -3 -10 1 -10 9 0 9 5
16 10 16 6 0 10 -4 10 -9z m27 -53 c-3 -7 -5 -2 -5 12 0 14 2 19 5 13 2 -7 2
-19 0 -25z m113 26 c0 -11 -23 -49 -34 -56 -6 -4 -14 -2 -17 4 -6 9 -11 8 -22
-1 -18 -14 -32 1 -23 24 6 17 36 21 36 5 0 -18 18 -10 23 10 4 17 37 30 37 14z
m-790 -304 c0 -5 -7 -10 -15 -10 -8 0 -15 5 -15 10 0 6 7 10 15 10 8 0 15 -4
15 -10z m95 -83 c-11 -17 -22 -23 -36 -20 -32 9 -30 19 9 40 42 22 51 16 27
-20z m283 -90 c16 -38 15 -67 -3 -67 -10 0 -15 10 -15 27 0 14 -7 34 -16 44
-20 22 -12 58 9 37 7 -7 18 -26 25 -41z m-68 29 c0 -11 -19 -15 -25 -6 -3 5 1
10 9 10 9 0 16 -2 16 -4z m-30 -65 c0 -5 -7 -17 -16 -26 -22 -21 -44 -4 -24
20 14 16 40 20 40 6z m-110 -30 c0 -10 -7 -24 -15 -31 -12 -10 -16 -9 -21 4
-6 16 11 46 27 46 5 0 9 -8 9 -19z m393 -5 c-6 -27 -53 -44 -53 -19 0 19 22
42 41 43 12 0 15 -7 12 -24z m-241 -32 c-4 -23 -6 -24 -20 -11 -16 16 -9 37
12 37 9 0 12 -9 8 -26z m-164 -47 c2 -12 -3 -17 -17 -17 -15 0 -21 6 -21 21 0
25 33 22 38 -4z m108 -1 c-5 -21 -3 -23 16 -18 l22 5 -23 -31 c-12 -18 -28
-32 -36 -32 -7 0 -25 -14 -40 -31 -14 -17 -28 -30 -30 -28 -2 2 -10 23 -18 46
-14 41 -14 42 17 71 33 31 50 40 80 41 14 1 17 -4 12 -23z m314 -2 c0 -14 -12
-19 -23 -8 -9 9 4 35 14 28 5 -3 9 -12 9 -20z m-570 -49 c0 -8 -4 -15 -10 -15
-5 0 -10 7 -10 15 0 8 5 15 10 15 6 0 10 -7 10 -15z m35 -175 c0 -22 -29 -18
-33 3 -3 14 1 18 15 15 10 -2 18 -10 18 -18z m145 -30 c0 -5 -7 -10 -15 -10
-8 0 -15 5 -15 10 0 6 7 10 15 10 8 0 15 -4 15 -10z m-178 -182 c-7 -7 -12 -8
-12 -2 0 14 12 26 19 19 2 -3 -1 -11 -7 -17z m153 -18 c0 -13 -6 -25 -12 -27
-9 -3 -13 6 -13 27 0 21 4 30 13 28 6 -3 12 -15 12 -28z m-82 -68 c-5 -12 -7
-12 -15 2 -11 20 1 44 12 25 5 -6 6 -19 3 -27z m281 -473 c13 -12 6 -16 -29
-21 -25 -2 -31 1 -33 20 -3 20 0 22 25 16 15 -4 32 -10 37 -15z m-74 -53 c0
-3 -4 -8 -10 -11 -5 -3 -10 -1 -10 4 0 6 5 11 10 11 6 0 10 -2 10 -4z"/>
<path d="M4420 8090 c0 -5 5 -10 10 -10 6 0 10 5 10 10 0 6 -4 10 -10 10 -5 0
-10 -4 -10 -10z"/>
<path d="M4910 8091 c0 -5 5 -13 10 -16 6 -3 10 -2 10 4 0 5 -4 13 -10 16 -5
3 -10 2 -10 -4z"/>
<path d="M3730 7770 c0 -5 7 -10 15 -10 8 0 15 5 15 10 0 6 -7 10 -15 10 -8 0
-15 -4 -15 -10z"/>
<path d="M3760 7600 c0 -5 -11 -12 -25 -16 -35 -9 -31 -30 6 -43 41 -14 39
-14 39 8 0 11 -6 22 -12 24 -7 3 3 3 23 0 34 -5 60 9 45 25 -11 10 -76 12 -76
2z"/>
<path d="M4024 7457 c-29 -34 -45 -67 -38 -78 3 -5 1 -16 -5 -23 -14 -17 29
-66 59 -66 13 0 20 -7 20 -20 0 -15 7 -20 25 -20 26 0 32 9 16 26 -5 5 -11 22
-13 38 -2 16 -10 31 -18 33 -12 4 -13 3 -1 -5 23 -16 9 -31 -19 -20 -15 6 -20
12 -13 15 8 3 11 14 7 27 -6 26 20 44 33 23 4 -7 12 3 19 28 9 33 16 41 40 45
41 8 18 17 -42 18 -41 1 -55 -4 -70 -21z m0 -78 c-8 -14 -24 -10 -24 6 0 9 6
12 15 9 8 -4 12 -10 9 -15z"/>
<path d="M4240 7390 c0 -5 5 -10 10 -10 6 0 10 5 10 10 0 6 -4 10 -10 10 -5 0
-10 -4 -10 -10z"/>
<path d="M4255 7300 c-3 -5 1 -10 9 -10 9 0 16 5 16 10 0 6 -4 10 -9 10 -6 0
-13 -4 -16 -10z"/>
<path d="M4336 7275 c-3 -8 -1 -15 4 -15 6 0 10 7 10 15 0 8 -2 15 -4 15 -2 0
-6 -7 -10 -15z"/>
<path d="M3511 7226 c-7 -8 -8 -17 -3 -20 6 -3 12 3 15 14 6 24 4 25 -12 6z"/>
<path d="M3534 7064 c3 -9 6 -18 6 -20 0 -3 5 -2 10 1 16 10 12 35 -6 35 -11
0 -14 -5 -10 -16z"/>
<path d="M3596 6644 c-8 -22 -8 -24 8 -24 15 0 28 24 19 34 -11 10 -21 7 -27
-10z"/>
<path d="M3635 5940 c-3 -5 -2 -10 4 -10 5 0 13 5 16 10 3 6 2 10 -4 10 -5 0
-13 -4 -16 -10z"/>
</g>
</svg>
